<svg width="100%" height="100%" id="svg" viewBox="0 0 1440 590" xmlns="http://www.w3.org/2000/svg" class="transition duration-300 ease-in-out delay-150"><path d="M 0,600 C 0,600 0,200 0,200 C 135.67857142857144,204.78571428571428 271.3571428571429,209.57142857142858 400,205 C 528.6428571428571,200.42857142857142 650.2500000000001,186.5 758,199 C 865.7499999999999,211.5 959.6428571428571,250.42857142857144 1071,255 C 1182.357142857143,259.57142857142856 1311.1785714285716,229.78571428571428 1440,200 C 1440,200 1440,600 1440,600 Z" stroke="none" stroke-width="0" fill="#72a5aa" fill-opacity="0.53" class="transition-all duration-300 ease-in-out delay-150 path-0" transform="rotate(-180 720 300)"></path><path d="M 0,600 C 0,600 0,400 0,400 C 146.10714285714283,389.75 292.21428571428567,379.5 409,366 C 525.7857142857143,352.5 613.25,335.75 733,339 C 852.75,342.25 1004.7857142857144,365.5 1128,379 C 1251.2142857142856,392.5 1345.6071428571427,396.25 1440,400 C 1440,400 1440,600 1440,600 Z" stroke="none" stroke-width="0" fill="#72a5aa" fill-opacity="1" class="transition-all duration-300 ease-in-out delay-150 path-1" transform="rotate(-180 720 300)"></path></svg>