<?xml version="1.0" encoding="UTF-8" standalone="no" ?>
<!DOCTYPE svg PUBLIC "-//W3C//DTD SVG 1.1//EN" "http://www.w3.org/Graphics/SVG/1.1/DTD/svg11.dtd">
<svg xmlns="http://www.w3.org/2000/svg" xmlns:xlink="http://www.w3.org/1999/xlink" version="1.1" width="1080" height="1080" viewBox="0 0 1080 1080" xml:space="preserve">
<desc>Created with Fabric.js 5.2.4</desc>
<defs>
</defs>
<g transform="matrix(1 0 0 1 540 540)" id="7abb2b11-1ea5-4c98-b7a0-a2aff69ecbfa"  >
<rect style="stroke: none; stroke-width: 1; stroke-dasharray: none; stroke-linecap: butt; stroke-dashoffset: 0; stroke-linejoin: miter; stroke-miterlimit: 4; fill: rgb(97,166,171); fill-rule: nonzero; opacity: 1; visibility: hidden;" vector-effect="non-scaling-stroke"  x="-540" y="-540" rx="0" ry="0" width="1080" height="1080" />
</g>
<g transform="matrix(1 0 0 1 540 540)" id="62595526-a7ba-4077-b6fe-a5601ddc0129"  >
</g>
<g transform="matrix(NaN NaN NaN NaN 0 0)"  >
<g style=""   >
</g>
</g>
<g transform="matrix(NaN NaN NaN NaN 0 0)"  >
<g style=""   >
</g>
</g>
<g transform="matrix(NaN NaN NaN NaN 0 0)"  >
<g style=""   >
</g>
</g>
<g transform="matrix(2.57 0 0 2.57 540 540)"  >
<g style=""   >
		<g transform="matrix(1.96 0 0 1.96 -180.03 140)" id="line1"  >
<path style="stroke: none; stroke-width: 1; stroke-dasharray: none; stroke-linecap: butt; stroke-dashoffset: 0; stroke-linejoin: miter; stroke-miterlimit: 4; fill: rgb(35,35,35); fill-rule: nonzero; opacity: 1;" vector-effect="non-scaling-stroke"  transform=" translate(-19.4, 24.84)" d="M 3.888 -1.368 C 3.888 -0.648 4.536 0 5.256 0 L 8.64 0 C 9.36 0 9.864 -0.648 10.152 -1.44 L 11.016 -3.816 C 11.016 -3.816 14.328 0.72 20.664 0.72 C 28.8 0.72 34.92 -6.12 34.92 -14.4 C 34.92 -24.552 28.296 -29.52 20.592 -29.52 C 18.144 -29.52 15.48 -28.656 14.616 -28.152 L 14.616 -49.032 C 14.616 -49.752 13.968 -50.4 13.248 -50.4 L 5.256 -50.4 C 4.536 -50.4 3.888 -49.752 3.888 -49.032 Z M 13.464 -14.472 C 13.464 -17.712 15.912 -20.232 19.224 -20.232 C 22.536 -20.232 25.056 -17.712 25.056 -14.472 C 25.056 -11.16 22.536 -8.568 19.224 -8.568 C 15.912 -8.568 13.464 -11.16 13.464 -14.472 Z" stroke-linecap="round" />
</g>
		<g transform="matrix(1.96 0 0 1.96 -117.65 160.42)" id="line1"  >
<path style="stroke: none; stroke-width: 1; stroke-dasharray: none; stroke-linecap: butt; stroke-dashoffset: 0; stroke-linejoin: miter; stroke-miterlimit: 4; fill: rgb(35,35,35); fill-rule: nonzero; opacity: 1;" vector-effect="non-scaling-stroke"  transform=" translate(-51.29, 14.4)" d="M 36.317 -14.472 C 36.317 -6.192 43.085 0.72 51.293 0.72 C 59.501 0.72 66.269 -6.192 66.269 -14.472 C 66.269 -22.608 59.501 -29.52 51.293 -29.52 C 43.085 -29.52 36.317 -22.608 36.317 -14.472 Z M 45.605 -14.472 C 45.605 -17.64 48.125 -20.232 51.293 -20.232 C 54.461 -20.232 56.981 -17.64 56.981 -14.472 C 56.981 -11.232 54.461 -8.568 51.293 -8.568 C 48.125 -8.568 45.605 -11.232 45.605 -14.472 Z" stroke-linecap="round" />
</g>
		<g transform="matrix(1.96 0 0 1.96 -56.6 160.42)" id="line1"  >
<path style="stroke: none; stroke-width: 1; stroke-dasharray: none; stroke-linecap: butt; stroke-dashoffset: 0; stroke-linejoin: miter; stroke-miterlimit: 4; fill: rgb(35,35,35); fill-rule: nonzero; opacity: 1;" vector-effect="non-scaling-stroke"  transform=" translate(-82.5, 14.4)" d="M 67.522 -14.472 C 67.522 -6.192 74.29 0.72 82.498 0.72 C 90.706 0.72 97.474 -6.192 97.474 -14.472 C 97.474 -22.608 90.706 -29.52 82.498 -29.52 C 74.29 -29.52 67.522 -22.608 67.522 -14.472 Z M 76.81 -14.472 C 76.81 -17.64 79.33 -20.232 82.498 -20.232 C 85.666 -20.232 88.186 -17.64 88.186 -14.472 C 88.186 -11.232 85.666 -8.568 82.498 -8.568 C 79.33 -8.568 76.81 -11.232 76.81 -14.472 Z" stroke-linecap="round" />
</g>
		<g transform="matrix(1.96 0 0 1.96 -10.07 139.3)" id="line1"  >
<path style="stroke: none; stroke-width: 1; stroke-dasharray: none; stroke-linecap: butt; stroke-dashoffset: 0; stroke-linejoin: miter; stroke-miterlimit: 4; fill: rgb(35,35,35); fill-rule: nonzero; opacity: 1;" vector-effect="non-scaling-stroke"  transform=" translate(-106.29, 25.2)" d="M 100.958 -1.368 C 100.958 -0.648 101.606 0 102.326 0 L 110.246 0 C 110.966 0 111.614 -0.648 111.614 -1.368 L 111.614 -49.032 C 111.614 -49.752 110.966 -50.4 110.246 -50.4 L 102.326 -50.4 C 101.606 -50.4 100.958 -49.752 100.958 -49.032 Z" stroke-linecap="round" />
</g>
		<g transform="matrix(1.96 0 0 1.96 41.89 140)" id="line1"  >
<path style="stroke: none; stroke-width: 1; stroke-dasharray: none; stroke-linecap: butt; stroke-dashoffset: 0; stroke-linejoin: miter; stroke-miterlimit: 4; fill: rgb(35,35,35); fill-rule: nonzero; opacity: 1;" vector-effect="non-scaling-stroke"  transform=" translate(-132.85, 24.84)" d="M 117.331 -1.368 C 117.331 -0.648 117.979 0 118.699 0 L 122.083 0 C 122.803 0 123.307 -0.648 123.595 -1.44 L 124.459 -3.816 C 124.459 -3.816 127.771 0.72 134.107 0.72 C 142.243 0.72 148.363 -6.12 148.363 -14.4 C 148.363 -24.552 141.739 -29.52 134.035 -29.52 C 131.587 -29.52 128.923 -28.656 128.059 -28.152 L 128.059 -49.032 C 128.059 -49.752 127.411 -50.4 126.691 -50.4 L 118.699 -50.4 C 117.979 -50.4 117.331 -49.752 117.331 -49.032 Z M 126.907 -14.472 C 126.907 -17.712 129.355 -20.232 132.667 -20.232 C 135.979 -20.232 138.499 -17.712 138.499 -14.472 C 138.499 -11.16 135.979 -8.568 132.667 -8.568 C 129.355 -8.568 126.907 -11.16 126.907 -14.472 Z" stroke-linecap="round" />
</g>
		<g transform="matrix(1.96 0 0 1.96 109.69 159.72)" id="line1"  >
<path style="stroke: none; stroke-width: 1; stroke-dasharray: none; stroke-linecap: butt; stroke-dashoffset: 0; stroke-linejoin: miter; stroke-miterlimit: 4; fill: rgb(35,35,35); fill-rule: nonzero; opacity: 1;" vector-effect="non-scaling-stroke"  transform=" translate(-167.51, 14.76)" d="M 151.992 -1.368 C 151.992 -0.648 152.64 0 153.36 0 L 160.92 0 C 161.928 0 162.216 -0.72 162.216 -1.368 L 162.216 -15.192 C 162.216 -18.144 164.808 -20.232 167.688 -20.232 C 170.928 -20.232 172.584 -17.712 172.584 -14.832 L 172.584 -1.368 C 172.584 -0.648 173.16 0 173.952 0 L 181.656 0 C 182.376 0 183.024 -0.648 183.024 -1.368 L 183.024 -14.472 C 183.024 -22.68 178.272 -29.52 169.344 -29.52 C 164.088 -29.52 160.776 -26.784 159.192 -25.056 L 158.04 -27.936 C 157.824 -28.44 157.176 -28.8 156.744 -28.8 L 153.36 -28.8 C 152.64 -28.8 151.992 -28.224 151.992 -27.432 Z" stroke-linecap="round" />
</g>
		<g transform="matrix(1.96 0 0 1.96 180.03 140)" id="line1"  >
<path style="stroke: none; stroke-width: 1; stroke-dasharray: none; stroke-linecap: butt; stroke-dashoffset: 0; stroke-linejoin: miter; stroke-miterlimit: 4; fill: rgb(35,35,35); fill-rule: nonzero; opacity: 1;" vector-effect="non-scaling-stroke"  transform=" translate(-203.47, 24.84)" d="M 187.949 -1.368 C 187.949 -0.648 188.597 0 189.317 0 L 192.701 0 C 193.421 0 193.925 -0.648 194.213 -1.44 L 195.077 -3.816 C 195.077 -3.816 198.389 0.72 204.725 0.72 C 212.861 0.72 218.981 -6.12 218.981 -14.4 C 218.981 -24.552 212.357 -29.52 204.653 -29.52 C 202.205 -29.52 199.541 -28.656 198.677 -28.152 L 198.677 -49.032 C 198.677 -49.752 198.029 -50.4 197.309 -50.4 L 189.317 -50.4 C 188.597 -50.4 187.949 -49.752 187.949 -49.032 Z M 197.525 -14.472 C 197.525 -17.712 199.973 -20.232 203.285 -20.232 C 206.597 -20.232 209.117 -17.712 209.117 -14.472 C 209.117 -11.16 206.597 -8.568 203.285 -8.568 C 199.973 -8.568 197.525 -11.16 197.525 -14.472 Z" stroke-linecap="round" />
</g>
		<g transform="matrix(0.49 0 0 0.49 0 -65)" id="logomark"  >
<path style="stroke: none; stroke-width: 1; stroke-dasharray: none; stroke-linecap: butt; stroke-dashoffset: 0; stroke-linejoin: miter; stroke-miterlimit: 4; fill: rgb(35,35,35); fill-rule: nonzero; opacity: 1;" vector-effect="non-scaling-stroke"  transform=" translate(-256, -256)" d="M 256 0 C 139.167 0 44.467 94.708 44.467 211.533 C 44.467 372.184 256 512 256 512 C 256 512 467.533 372.18399999999997 467.533 211.53300000000002 C 467.533 94.708 372.833 0 256 0 z M 256 375.941 C 165.2 375.941 91.6 302.341 91.6 211.533 C 91.6 120.73299999999999 165.201 47.125 256 47.125 C 346.799 47.125 420.41700000000003 120.733 420.41700000000003 211.533 C 420.41700000000003 302.342 346.8 375.941 256 375.941 z" stroke-linecap="round" />
</g>
		<g transform="matrix(0.49 0 0 0.49 -2.74 -85.04)" id="logomark"  >
<path style="stroke: none; stroke-width: 1; stroke-dasharray: none; stroke-linecap: butt; stroke-dashoffset: 0; stroke-linejoin: miter; stroke-miterlimit: 4; fill: rgb(35,35,35); fill-rule: nonzero; opacity: 1;" vector-effect="non-scaling-stroke"  transform=" translate(-250.39, -214.96)" d="M 338.708 205.15 L 162.066 205.15 C 156.649 205.15 152.258 209.53300000000002 152.258 214.95000000000002 L 152.258 273.834 L 171.883 273.834 L 171.883 283.65 L 211.133 283.65 L 211.133 273.834 L 289.641 273.834 L 289.641 283.65 L 328.891 283.65 L 328.891 273.834 L 348.524 273.834 L 348.524 214.95 C 348.524 209.533 344.125 205.14999999999998 338.708 205.14999999999998 z M 191.508 166.05 L 240.57500000000002 166.05 L 240.57500000000002 195.33300000000003 L 260.2 195.33300000000003 L 260.2 166.05 L 309.267 166.05 L 309.267 195.33300000000003 L 328.892 195.33300000000003 L 328.892 146.26700000000002 L 171.883 146.26700000000002 L 171.883 195.33300000000003 L 191.508 195.33300000000003 z" stroke-linecap="round" />
</g>
</g>
</g>
</svg>