<svg xmlns="http://www.w3.org/2000/svg" xmlns:xlink="http://www.w3.org/1999/xlink" width="260" zoomAndPan="magnify" viewBox="0 0 1230 693.000001" height="200" preserveAspectRatio="xMidYMid meet" version="1.0"><defs><g/></defs><g fill="#f8d07c" fill-opacity="1"><g transform="translate(321.730385, 315.483806)"><g><path d="M 176.871094 -9.367188 C 186.214844 -10.683594 194.425781 -15.867188 199.855469 -21.933594 C 205.191406 -27.992188 207.875 -34.753906 206.703125 -39.597656 L 206.855469 -39.226562 C 204.890625 -47.59375 202.945312 -57.929688 201 -68.953125 C 198.960938 -79.960938 197.019531 -91.671875 195.320312 -103.023438 C 193.625 -114.375 192.011719 -125.152344 190.695312 -134.496094 L 189.070312 -146.054688 C 188.09375 -152.988281 187.445312 -158.300781 186.890625 -162.9375 C 185.765625 -170.933594 182.820312 -175.820312 178.519531 -178.457031 C 174.230469 -181 168.46875 -181.464844 161.628906 -180.5 C 155.851562 -179.6875 149.65625 -177.636719 143.1875 -175.449219 C 136.523438 -173.234375 129.765625 -171.007812 123.503906 -170.128906 C 121.480469 -169.84375 119.925781 -169.722656 118.648438 -169.738281 L 118.933594 -169.777344 C 118.441406 -169.808594 117.738281 -169.90625 116.832031 -170.070312 C 114.851562 -170.1875 112.855469 -170.398438 110.339844 -170.828125 C 100.511719 -154.121094 92.761719 -138.691406 86.457031 -124.835938 L 78.300781 -150.015625 C 74.347656 -155.746094 69.445312 -159.179688 63.890625 -160.953125 C 58.335938 -162.726562 52.132812 -162.835938 45.585938 -161.914062 C 41.828125 -161.382812 37.824219 -160.527344 33.761719 -159.363281 C 29.605469 -158.191406 25.476562 -156.824219 21.8125 -155.621094 C 15.523438 -153.558594 8.847656 -151.4375 4.125 -150.773438 C 3.355469 -150.667969 1.582031 -150.710938 -1.195312 -150.910156 C -4.058594 -150.996094 -7.632812 -151.28125 -12.105469 -151.632812 C -13.582031 -128.636719 -13.777344 -101.398438 -12.132812 -72.949219 C -10.566406 -44.386719 -7.355469 -14.582031 -2.230469 13.476562 L 59.695312 3.976562 L 58.664062 -3.34375 L 57.824219 -9.316406 C 57.550781 -11.242188 57.347656 -12.6875 57.308594 -13.664062 C 56.945312 -16.265625 56.578125 -19.554688 56.09375 -23.707031 C 59.828125 -20.207031 64.15625 -17.378906 68.910156 -15.6875 C 73.667969 -14 79.042969 -13.480469 85.210938 -14.347656 C 92.820312 -15.417969 100.265625 -18.332031 106.535156 -22.652344 C 112.804688 -26.972656 117.917969 -32.507812 121.207031 -39.15625 C 124.8125 -26.796875 130.050781 -18.203125 138.707031 -13.230469 C 147.277344 -8.152344 159.53125 -6.929688 176.871094 -9.367188 Z M 174.972656 -22.855469 C 158.40625 -20.523438 148.339844 -22.9375 141.835938 -30.078125 C 135.234375 -37.203125 132.316406 -48.875 129.996094 -65.34375 L 126.992188 -89.480469 L 120.0625 -71.707031 L 115.195312 -58.84375 C 113.671875 -54.992188 112.289062 -51.558594 110.855469 -48.507812 C 107.980469 -42.40625 104.902344 -37.746094 100.753906 -34.414062 C 96.523438 -30.96875 91.015625 -28.917969 83.214844 -27.820312 C 75.605469 -26.75 69.65625 -29.9375 64.207031 -35.164062 C 58.769531 -40.292969 53.996094 -47.675781 49.019531 -55.128906 L 49.128906 -55.046875 L 36.667969 -75.886719 C 38.109375 -60.765625 39.824219 -45.78125 41.257812 -33.507812 L 43.191406 -17.667969 C 43.730469 -13.128906 44.082031 -9.9375 44.351562 -8.007812 L 8.027344 -3.683594 C 7.507812 -5.28125 7.179688 -6.90625 7.171875 -8.375 C 7.0625 -9.835938 6.941406 -11.390625 6.738281 -12.835938 C 5.546875 -21.3125 4.28125 -33.804688 3.167969 -47.988281 C 2.054688 -62.175781 1.195312 -78.066406 0.675781 -93.609375 C 0.160156 -109.15625 0.109375 -124.179688 0.699219 -136.738281 C 1.992188 -136.625 2.96875 -136.664062 3.628906 -136.855469 C 4.289062 -137.046875 5.15625 -137.167969 6.023438 -137.289062 C 12.285156 -138.171875 19.609375 -140.574219 26.847656 -142.871094 C 33.992188 -145.15625 41.21875 -147.546875 47.675781 -148.453125 C 56.054688 -149.632812 62.890625 -148.53125 67.222656 -142.167969 C 70.414062 -135.542969 73.175781 -127.78125 76.023438 -120.125 C 78.867188 -112.472656 81.628906 -104.707031 84.808594 -98.179688 L 90.652344 -97.824219 C 94.136719 -106.566406 98.066406 -116.351562 102.542969 -126.410156 C 106.9375 -136.363281 111.898438 -146.492188 117.601562 -156.230469 C 119.910156 -155.871094 122.703125 -156.261719 125.402344 -156.640625 C 132.335938 -157.617188 139.480469 -159.898438 146.144531 -162.113281 C 152.820312 -164.234375 158.808594 -166.351562 163.429688 -167.003906 C 168.824219 -167.761719 172.359375 -166.394531 173.390625 -161.136719 C 173.945312 -156.5 174.597656 -151.1875 175.570312 -144.253906 L 177.210938 -132.597656 C 178.554688 -123.0625 180.195312 -112.09375 181.90625 -100.644531 C 183.628906 -89.101562 185.597656 -77.195312 187.652344 -66.089844 C 189.609375 -54.972656 191.566406 -44.539062 193.53125 -36.171875 C 193.816406 -34.148438 191.964844 -31.238281 188.699219 -28.617188 C 185.433594 -25.996094 180.65625 -23.652344 174.972656 -22.855469 Z M 174.972656 -22.855469 "/></g></g><g transform="translate(530.46175, 286.111396)"><g><path d="M 68.230469 6.703125 C 90.191406 3.613281 106.300781 -1.992188 117.871094 -9.121094 C 129.441406 -16.25 136.445312 -25.09375 140.292969 -34.769531 C 144.054688 -44.335938 144.554688 -54.722656 143.09375 -65.125 C 140.667969 -82.367188 133.503906 -96.976562 122.238281 -105.117188 L 128.871094 -112.433594 C 118.4375 -121.675781 106.644531 -127.285156 94.0625 -130.128906 C 81.386719 -132.964844 67.824219 -133.019531 53.566406 -131.011719 C 31.21875 -127.867188 13.097656 -119.816406 1.242188 -107.050781 C -10.613281 -94.28125 -16.167969 -76.503906 -13.300781 -54.019531 C -10.222656 -32.15625 -3.683594 -15.003906 9.019531 -4.3125 C 21.722656 6.375 40.488281 10.609375 68.230469 6.703125 Z M 66.332031 -6.78125 C 44.277344 -3.675781 29.246094 -7.160156 19.097656 -15.753906 C 8.855469 -24.332031 3.65625 -38.234375 1.164062 -55.957031 C -0.808594 -73.460938 3.871094 -87.675781 13.507812 -98.066406 C 23.050781 -108.449219 37.644531 -115.019531 55.464844 -117.527344 C 78.96875 -120.835938 94.917969 -117.773438 106.316406 -108.671875 L 94.558594 -97.292969 C 95.605469 -97.539062 96.457031 -97.757812 97.515625 -97.90625 C 106.378906 -99.152344 113.730469 -95.765625 119.136719 -89.457031 C 124.546875 -83.144531 128.117188 -73.824219 129.59375 -63.324219 C 130.730469 -55.234375 130.191406 -47.199219 127.027344 -39.683594 C 123.765625 -32.152344 117.863281 -25.230469 108.152344 -19.542969 C 98.34375 -13.839844 84.828125 -9.382812 66.332031 -6.78125 Z M 66.988281 -37.71875 C 68.628906 -37.949219 70.144531 -40.421875 71.089844 -44.1875 C 72.046875 -47.859375 72.402344 -53.015625 71.628906 -58.507812 L 71.261719 -61.109375 C 71.042969 -61.960938 70.894531 -63.019531 70.746094 -64.078125 C 70.269531 -67.453125 70.003906 -70.753906 70.421875 -74.054688 L 68.960938 -72.570312 C 68.402344 -74.457031 68.046875 -76.273438 66.90625 -77.390625 C 65.769531 -78.507812 64.007812 -79.144531 61.214844 -78.75 C 58.808594 -78.410156 57.179688 -76.710938 56.5 -73.175781 C 55.816406 -69.640625 56.09375 -64.179688 57.191406 -56.378906 C 58.046875 -50.308594 58.726562 -45.492188 60.066406 -42.242188 C 61.421875 -38.898438 63.523438 -37.230469 66.988281 -37.71875 Z M 66.988281 -37.71875 "/></g></g><g transform="translate(672.248814, 266.159303)"><g><path d="M 61.957031 8.175781 C 74.667969 6.386719 86.671875 3.71875 96.984375 -0.484375 C 107.308594 -4.589844 115.574219 -10.074219 121.105469 -17.53125 C 126.652344 -24.894531 129.105469 -33.984375 127.480469 -45.542969 C 125.691406 -58.257812 120.792969 -65.820312 114.3125 -70.703125 L 124.195312 -73.074219 C 124.960938 -85.070312 124.898438 -93.210938 124.207031 -98.125 C 122.363281 -111.226562 117.664062 -120.191406 111.332031 -126.078125 C 104.921875 -131.855469 96.753906 -134.734375 87.859375 -135.839844 C 78.960938 -136.945312 69.34375 -136.179688 60.09375 -134.878906 C 46.996094 -133.035156 33.875 -128.535156 22.292969 -122.191406 C 10.613281 -115.832031 0.664062 -107.65625 -6.109375 -98.550781 C -12.867188 -89.347656 -16.339844 -79.132812 -14.890625 -68.828125 C -13.101562 -56.113281 -7.011719 -47.046875 1.296875 -40.359375 C -3.859375 -35.800781 -7.433594 -30.484375 -7.238281 -24.226562 C -7.1875 -23.152344 -7.175781 -22.367188 -6.863281 -20.152344 C -5.507812 -10.519531 -0.804688 -3.621094 5.941406 1.03125 C 12.683594 5.679688 21.496094 8.269531 31.25 9.160156 C 41.015625 10.140625 51.550781 9.640625 61.957031 8.175781 Z M 60.058594 -5.308594 C 51.871094 -4.15625 43.503906 -3.566406 35.96875 -4.078125 C 28.347656 -4.480469 21.375 -5.855469 16.25 -8.769531 C 11.042969 -11.574219 7.488281 -15.886719 6.621094 -22.050781 C 6.527344 -22.726562 6.472656 -23.796875 6.421875 -24.871094 C 6.425781 -27.621094 8.234375 -30.136719 10.699219 -32.152344 C 13.179688 -34.074219 16.113281 -35.566406 18.277344 -36.265625 C 24.003906 -31.863281 30.574219 -29.84375 37.246094 -29.210938 C 43.929688 -28.480469 50.617188 -29.125 56.492188 -29.953125 C 61.113281 -30.605469 61.847656 -33.0625 61.589844 -34.894531 C 61.441406 -35.953125 60.839844 -36.753906 59.683594 -37.277344 C 57.457031 -38.4375 53.648438 -38.984375 48.808594 -39.1875 C 46.332031 -39.328125 43.757812 -39.457031 41.0625 -39.765625 C 35.492188 -40.257812 29.496094 -40.988281 23.820312 -42.9375 C 17.648438 -45.605469 11.878906 -48.921875 7.417969 -53.398438 C 2.859375 -57.867188 -0.390625 -63.5 -1.40625 -70.722656 C -2.503906 -78.527344 0.539062 -86.222656 6.332031 -93.226562 C 12.027344 -100.21875 20.570312 -106.527344 30.292969 -111.429688 C 40.011719 -116.335938 51.109375 -119.863281 61.992188 -121.394531 C 69.023438 -122.382812 76.414062 -122.929688 83.277344 -122.324219 C 90.042969 -121.707031 96.214844 -119.726562 101.105469 -115.699219 C 106.007812 -111.574219 109.433594 -105.378906 110.71875 -96.226562 C 111.222656 -92.664062 111.40625 -88.5625 111.175781 -83.914062 L 70.039062 -74 C 68.421875 -77.800781 66.308594 -79.566406 64.3125 -80.464844 C 62.335938 -81.265625 60.503906 -81.007812 59.445312 -80.859375 C 58.289062 -80.695312 56.941406 -80.507812 55.976562 -79.683594 C 54.914062 -78.847656 54.390625 -77.691406 54.703125 -75.476562 C 55.066406 -72.875 56.125 -70.960938 57.882812 -69.636719 C 61.398438 -66.988281 66.761719 -65.875 73.484375 -65.546875 L 83.597656 -64.90625 C 90.445312 -64.394531 97.554688 -63.433594 103.09375 -60.378906 C 108.628906 -57.328125 112.761719 -52.410156 113.992188 -43.644531 C 115.675781 -31.699219 109.988281 -23.238281 99.933594 -17.207031 C 89.796875 -11.0625 75.46875 -7.476562 60.058594 -5.308594 Z M 60.058594 -5.308594 "/></g></g></g><g fill="#f8d07c" fill-opacity="1"><g transform="translate(800.935987, 248.050609)"><g><path d="M 54.5625 10.101562 C 61.882812 9.070312 71.355469 6.558594 80.441406 2.726562 C 89.527344 -1.105469 98.261719 -6.066406 104.449219 -12.339844 C 110.640625 -18.613281 114.328125 -25.910156 113.148438 -34.292969 C 112.269531 -40.550781 108.445312 -47.480469 101.59375 -53.589844 C 95.425781 -59.007812 88.839844 -60.4375 83.0625 -59.625 C 80.074219 -59.203125 77.554688 -58.261719 75.351562 -57.164062 C 74.894531 -61.128906 74.355469 -67.042969 73.765625 -74.035156 C 80.207031 -75.039062 86.265625 -79.425781 90.597656 -84.949219 C 94.832031 -90.457031 97.308594 -97.289062 96.402344 -103.742188 C 95.316406 -111.445312 91.34375 -118.058594 86.277344 -122.648438 C 81.210938 -127.242188 74.957031 -129.800781 69.453125 -129.121094 C 68.785156 -138.753906 68.074219 -148.671875 67.511719 -156.15625 L 66.617188 -168.800781 L -18.039062 -156.101562 L -16.730469 -142.632812 C -16.257812 -138.574219 -15.8125 -134.019531 -15.316406 -129.082031 L -13.792969 -114.070312 L -19.570312 -113.253906 L -12.375 -62.109375 L -8.328125 -62.675781 C -7.679688 -56.679688 -7.074219 -51.65625 -6.597656 -47.597656 L -5.695312 -39.769531 C -3.851562 -26.667969 0.9375 -14.964844 8.96875 -6.074219 C 16.996094 2.8125 28.359375 8.878906 43.433594 10.585938 C 46.527344 10.9375 50.324219 10.699219 54.5625 10.101562 Z M 52.667969 -3.382812 C 49.488281 -2.9375 46.585938 -2.625 44.976562 -2.890625 C 33.699219 -4.152344 25.042969 -9.121094 18.933594 -16.21875 C 12.746094 -23.207031 9.078125 -32.515625 7.65625 -42.628906 C 7.507812 -43.6875 7.277344 -45.324219 7.058594 -47.554688 C 6.421875 -52.082031 5.75 -58.273438 4.953125 -66.019531 C 4.519531 -69.789062 4.144531 -73.863281 3.644531 -78.113281 L -0.882812 -77.476562 L -4.585938 -101.710938 L 2.570312 -103.207031 L -3.246094 -144.53125 L 53.984375 -153.171875 C 54.210938 -149.472656 54.574219 -145.496094 54.894531 -141.121094 L 56.980469 -113.027344 L 71.058594 -115.597656 C 73.371094 -115.921875 76.023438 -114.527344 78.328125 -112.101562 C 80.539062 -109.660156 82.320312 -106.082031 82.917969 -101.84375 C 83.351562 -98.761719 82.160156 -95.351562 79.980469 -92.6875 C 77.816406 -89.925781 74.566406 -87.898438 71.386719 -87.449219 L 59.152344 -85.730469 C 59.472656 -81.355469 59.863281 -77.183594 60.214844 -73.304688 C 60.578125 -69.328125 60.871094 -65.835938 61.222656 -62.640625 C 61.476562 -59.4375 61.746094 -56.820312 61.949219 -54.6875 C 62.152344 -52.554688 62.355469 -51.113281 62.464844 -50.339844 C 62.71875 -48.511719 63.441406 -45.46875 64.773438 -43.003906 C 66.113281 -40.441406 67.777344 -38.417969 70.390625 -38.6875 C 72.316406 -38.957031 74.4375 -40.632812 76.945312 -42.359375 C 79.355469 -44.074219 81.972656 -45.71875 84.960938 -46.140625 C 88.523438 -46.640625 92.09375 -44.292969 94.882812 -41.25 C 97.585938 -38.09375 99.378906 -34.417969 99.664062 -32.394531 C 100.382812 -27.289062 97.304688 -22.632812 92.371094 -18.597656 C 87.34375 -14.550781 80.265625 -11.097656 73.0625 -8.511719 C 65.863281 -5.929688 58.445312 -4.195312 52.667969 -3.382812 Z M 52.667969 -3.382812 "/></g></g></g><path stroke-linecap="butt" transform="matrix(0.741613, -0.104359, 0.104359, 0.741613, 171.855441, 192.037434)" fill="none" stroke-linejoin="miter" d="M 418.683934 198.521729 C 431.283458 198.519659 443.103954 193.198667 451.417875 186.183303 C 459.599764 179.17043 464.406196 170.729196 463.75351 164.100709 L 463.885896 164.619726 C 462.844741 153.190793 462.19572 139.162353 461.679056 124.230771 C 461.02665 109.290622 460.63863 93.444842 460.509137 78.120027 C 460.379644 62.795212 460.245883 48.249348 460.248978 35.650551 L 460.24581 20.064349 C 460.250544 10.710401 460.376452 3.564675 460.505747 -2.669342 C 460.505285 -13.446175 457.520866 -20.460721 452.324837 -24.747285 C 447.131297 -28.901817 439.59503 -30.59438 430.376824 -30.590546 C 422.581504 -30.591908 414.0083 -29.033018 405.048111 -27.344232 C 395.824585 -25.65563 386.474921 -23.968978 378.031228 -23.966768 C 375.30272 -23.966211 373.224534 -24.095367 371.539226 -24.358857 L 371.928701 -24.356723 C 371.277838 -24.485183 370.366315 -24.745132 369.199297 -25.135844 C 366.601738 -25.654119 364.006855 -26.303699 360.75613 -27.3458 C 344.652531 -7.083902 331.533632 11.880879 320.625291 29.023496 L 314.519955 -5.782986 C 310.364403 -14.094787 304.516801 -19.552823 297.507359 -22.930509 C 290.492026 -26.303756 282.310417 -27.602544 273.477248 -27.602468 C 268.410436 -27.604387 262.956452 -27.213072 257.369029 -26.434957 C 251.655467 -25.658791 245.94172 -24.619289 240.878293 -23.709499 C 232.173058 -22.14812 222.952208 -20.590823 216.589376 -20.590762 C 215.546363 -20.590051 213.210192 -20.982001 209.574971 -21.762173 C 205.805043 -22.408552 201.13216 -23.450623 195.288855 -24.746936 C 189.052623 5.383737 183.72635 41.36268 180.611903 79.290978 C 177.364203 117.342741 176.064266 157.348839 177.625208 195.403061 L 261.267785 194.363215 L 261.266271 184.492198 L 261.266365 176.443872 C 261.269025 173.842231 261.269366 171.893401 261.399418 170.594893 C 261.397238 167.091873 261.528868 162.675381 261.65657 157.089011 C 265.943055 162.411644 271.138899 166.961544 277.110677 170.077332 C 283.087621 173.193846 290.103109 174.881599 298.41477 174.881879 C 308.675262 174.882499 319.067043 172.415458 328.155491 167.868807 C 337.249104 163.322884 345.039199 156.960688 350.625849 148.776728 C 353.093492 165.789512 358.420005 178.132242 368.941063 186.312678 C 379.33258 194.627635 395.308303 198.519097 418.683934 198.521729 Z M 418.687864 180.339778 C 396.34419 180.340145 383.489141 175.270779 376.212189 164.623533 C 368.809826 153.969173 367.122571 137.998505 367.119528 115.786136 L 367.643776 83.313646 L 355.174162 105.524869 L 346.339352 121.631927 C 343.614277 126.436687 341.14629 130.724564 338.677948 134.490935 C 333.741263 142.023676 328.804919 147.607588 322.704928 151.242158 C 316.47023 155.010523 308.806059 156.697331 298.282232 156.696525 C 288.021013 156.70107 280.748577 151.374369 274.515922 143.449754 C 268.280591 135.656443 263.347837 125.007233 258.149258 114.225806 L 258.278614 114.354621 L 245.679172 84.486198 C 244.771573 104.747959 244.250961 124.879823 243.862875 141.374872 L 243.473056 162.673399 C 243.346436 168.776112 243.21159 173.065737 243.214822 175.66294 L 194.376096 174.621249 C 193.985694 172.417279 193.859353 170.20833 194.117865 168.258959 C 194.24951 166.312804 194.378665 164.234618 194.379005 162.285788 C 194.375698 150.855417 195.027305 134.097217 196.194327 115.136098 C 197.366513 96.175707 199.181707 75.004016 201.392623 54.351527 C 203.598374 33.698311 206.325802 13.829582 209.442396 -2.666024 C 211.130921 -2.275667 212.429429 -2.145615 213.343087 -2.275141 C 214.251579 -2.405393 215.421458 -2.409321 216.590611 -2.408084 C 225.028412 -2.405856 235.16043 -4.22471 245.163632 -5.914208 C 255.034804 -7.601216 265.035517 -9.422745 273.736654 -9.420331 C 285.034994 -9.421149 293.868718 -6.692718 298.412693 2.527035 C 301.399803 11.880612 303.607266 22.657245 305.947982 33.310413 C 308.283533 43.962855 310.490996 54.739487 313.480782 63.96176 L 321.141426 65.519075 C 327.379604 54.614093 334.391769 42.401138 342.182344 29.93428 C 349.849269 17.597506 358.288216 5.127076 367.641717 -6.693202 C 370.626617 -5.783317 374.398138 -5.784585 378.032462 -5.784089 C 387.381972 -5.785248 397.253143 -7.472256 406.476669 -9.160857 C 415.697519 -10.718154 424.010062 -12.408534 430.246754 -12.410543 C 437.520568 -12.408825 441.934585 -9.93889 442.325018 -2.794247 C 442.195722 3.43977 442.065376 10.579604 442.065807 19.934279 L 442.067027 35.64662 C 442.063746 48.508753 442.192884 63.312061 442.324866 78.768907 C 442.454174 94.357058 442.842734 110.461009 443.493192 125.527297 C 444.011619 140.596075 444.663856 154.751382 445.699847 166.179588 C 445.700403 168.908096 442.715178 172.417378 437.910309 175.270292 C 433.104713 178.128372 426.346715 180.337737 418.687864 180.339778 Z M 553.505707 199.558731 C 583.118029 199.559354 605.456137 195.144258 622.081178 187.871004 C 638.706219 180.597749 649.617652 170.208166 656.500276 158.129732 C 663.254085 146.180654 665.852944 132.540777 665.85157 118.51393 C 665.852254 95.264439 659.097971 74.614516 645.72205 61.75535 L 655.854192 53.310329 C 643.772311 39.153165 629.228149 29.542776 613.120921 23.441638 C 596.883115 17.332661 578.96054 14.736878 559.740014 14.73955 C 529.606185 14.739283 504.147975 22.012613 486.09711 36.685851 C 468.040352 51.363528 457.388078 73.835752 457.001552 104.094313 C 457.002877 133.580496 462.457615 157.476521 477.265529 173.971434 C 492.067552 190.470785 516.097337 199.561911 553.505707 199.558731 Z M 553.504472 181.376053 C 523.760118 181.37792 504.53882 173.974747 492.719223 160.723586 C 480.767594 147.474914 476.4849 128.12616 476.482012 104.228296 C 477.130527 80.717062 485.963003 62.792479 500.643436 50.847438 C 515.188127 38.893831 535.71208 32.922441 559.736084 32.921501 C 591.429268 32.919975 611.953884 39.93242 625.331057 54.09277 L 607.667332 66.950616 C 609.092166 66.819281 610.263994 66.689214 611.691317 66.68991 C 623.642468 66.691412 632.732786 72.537285 638.707301 81.8846 C 644.681089 91.23708 647.667703 104.224981 647.671567 118.38386 C 647.669354 129.291998 645.461548 139.816026 639.874387 149.163973 C 634.16036 158.515137 625.0682 166.569245 611.169872 172.282588 C 597.144679 177.999148 578.439458 181.376892 553.504472 181.376053 Z M 560.128496 140.591655 C 562.335497 140.591454 564.804736 137.604761 566.750134 132.800897 C 568.698748 128.1239 570.128145 121.37229 570.127373 113.966445 L 570.131085 110.458987 C 570.000291 109.292324 570.000987 107.865 569.997245 106.431785 C 569.999519 101.886479 570.257288 97.471936 571.429256 93.186038 L 569.221373 94.876898 C 568.828666 92.277561 568.701785 89.810441 567.401483 88.121034 C 566.10118 86.431627 563.895417 85.262675 560.129061 85.264669 C 556.879047 85.265581 554.414262 87.209988 552.852633 91.757088 C 551.29617 96.304915 550.646806 103.577135 550.646727 114.095798 C 550.648396 122.28132 550.645782 128.775456 551.81266 133.322 C 552.982756 137.995409 555.451159 140.59187 560.128496 140.591655 Z M 736.121213 200.342116 C 753.260878 200.341593 769.629943 199.042236 784.047488 195.403507 C 798.462357 191.896082 810.411855 186.182398 819.112916 177.351644 C 827.817193 168.647755 832.751342 157.090488 832.753339 141.505012 C 832.753543 124.360182 827.683778 113.449399 820.023614 105.787424 L 833.532868 104.485948 C 836.776497 88.771968 838.20925 77.991392 838.209375 71.365225 C 838.208496 53.704053 833.663068 40.976116 826.386689 32.009199 C 818.985933 23.177529 808.720927 17.856364 797.165994 14.73974 C 785.605896 11.62239 772.748031 10.840159 760.275373 10.839013 C 742.614202 10.839891 724.427812 14.348584 707.933364 20.5815 C 691.306885 26.816907 676.630519 35.775996 665.979561 46.560405 C 655.332546 57.466515 648.840294 70.326761 648.838452 84.226742 C 648.838248 101.371572 655.204233 114.487376 664.945814 124.87571 C 657.27988 129.943836 651.564756 136.308322 650.658659 144.618932 C 650.525932 146.048745 650.395338 147.089083 650.396436 150.075761 C 650.396372 163.06476 655.330719 173.066324 663.385709 180.467825 C 671.435534 187.868599 682.605089 192.93781 695.337015 195.925093 C 708.066266 199.043681 722.089927 200.337599 736.121213 200.342116 Z M 736.120705 182.154273 C 725.080536 182.15455 713.907439 181.377639 704.039438 179.299018 C 694.037458 177.349027 685.073836 174.23361 678.839603 169.426977 C 672.476555 164.749701 668.578835 158.386188 668.579114 150.074526 C 668.580893 149.163545 668.707728 147.73817 668.840456 146.308356 C 669.357293 142.67295 672.216734 139.683226 675.856022 137.477447 C 679.488197 135.397081 683.644724 133.969897 686.636212 133.44802 C 693.388935 140.334432 701.699916 144.232371 710.403929 146.310481 C 719.105994 148.514731 728.068332 148.906805 735.990519 148.904951 C 742.221319 148.90738 743.650221 145.790093 743.650206 143.319756 C 743.650902 141.892433 743.004493 140.721687 741.573056 139.814448 C 738.844889 137.866174 733.910077 136.439607 727.548483 135.270516 C 724.300788 134.618617 720.921063 133.969207 717.414656 133.059678 C 710.140998 131.372466 702.347967 129.296135 695.20668 125.657603 C 687.542448 120.981579 680.530131 115.528197 675.465392 108.773972 C 670.269348 102.017071 667.020154 93.964492 667.02113 84.225507 C 667.021936 73.70168 672.477251 64.092886 681.440055 55.909963 C 690.270827 47.72953 702.74112 40.972478 716.508854 36.299472 C 730.27215 31.620575 745.601388 29.026637 760.276608 29.021691 C 769.757422 29.023208 779.631284 29.675232 788.593468 31.7528 C 797.424347 33.827694 805.216497 37.594685 810.933692 43.829723 C 816.648211 50.196066 820.025168 59.025106 820.021532 71.365732 C 820.024964 76.169936 819.50457 81.627306 818.334937 87.73073 L 762.098083 93.185401 C 760.666971 87.858995 758.200517 85.136394 755.733551 83.577782 C 753.264638 82.145308 750.794301 82.145323 749.366978 82.144627 C 747.807623 82.146421 745.990097 82.148756 744.561722 83.053876 C 743.000589 83.966652 742.094076 85.392924 742.095173 88.379602 C 742.091462 91.88706 743.135031 94.614856 745.212877 96.692841 C 749.368568 100.848812 756.252921 103.318732 765.080769 105.003424 L 778.333661 107.73218 C 787.292628 109.682883 796.513338 112.281417 803.269619 117.345865 C 810.020734 122.409586 814.570215 129.681235 814.566223 141.500355 C 814.569746 157.608064 805.475298 167.737141 791.058495 173.841042 C 776.51215 180.079464 756.899859 182.154972 736.120705 182.154273 Z M 899.510347 201.506592 C 909.380636 201.510243 922.373007 199.951679 935.099707 196.575404 C 947.827134 193.193964 960.299034 188.259601 969.647587 181.115934 C 979.001304 173.972993 985.234703 165.010949 985.233886 153.712609 C 985.23684 145.269643 981.468971 135.400621 973.546353 126.047801 C 966.398958 117.73637 957.95757 114.615432 950.167415 114.614797 C 946.137723 114.616606 942.630435 115.397736 939.513891 116.434006 C 939.646572 111.111698 940.03492 103.186481 940.555268 93.836615 C 949.25908 93.707725 958.086868 89.029584 964.841789 82.537521 C 971.465406 76.042783 976.011178 67.470059 976.013591 58.768922 C 976.011722 48.376399 971.983547 38.897394 966.139316 31.880729 C 960.294358 24.86923 952.501311 20.322562 945.098142 20.19203 C 946.011677 7.33684 946.917744 -5.914443 947.566551 -15.915171 L 948.736448 -32.800593 L 834.438535 -31.760659 L 833.662767 -13.708388 C 833.532575 -8.254049 833.273924 -2.148847 833.010464 4.477135 L 832.23168 24.60954 L 824.441525 24.608905 L 824.438577 93.5777 L 829.895591 93.576588 C 829.6366 101.63062 829.503222 108.380252 829.372303 113.839756 L 829.114054 124.35896 C 829.114933 142.020132 833.269663 158.385424 842.234613 171.635193 C 851.194398 184.884236 865.09127 195.014539 884.704518 200.08154 C 888.730482 201.116852 893.795161 201.508246 899.510347 201.506592 Z M 899.514277 183.324641 C 895.226415 183.326991 891.33143 183.195005 889.252889 182.544343 C 874.576401 178.777769 864.055343 170.597333 857.29795 160.07587 C 850.416907 149.684491 847.298261 136.699079 847.300645 123.057268 C 847.301341 121.629945 847.30114 119.422944 847.426909 116.433049 C 847.427389 110.328389 847.691004 102.016912 848.07861 91.626523 C 848.206668 86.561659 848.468164 81.109995 848.598542 75.39232 L 842.493881 75.391839 L 842.100715 42.663838 L 851.847184 42.01273 L 851.844719 -13.704458 L 929.125006 -14.486072 C 928.736287 -9.552698 928.47674 -4.227173 928.086243 1.617183 L 925.616411 39.156872 L 944.709174 38.377739 C 947.827884 38.374151 951.075423 40.711545 953.671404 44.347803 C 956.140518 47.987277 957.829259 53.054971 957.830913 58.770157 C 957.830773 62.925988 955.621684 67.208159 952.243953 70.325105 C 948.868711 73.574082 944.193523 75.655159 939.906388 75.652344 L 923.409204 75.653734 C 923.018707 81.49809 922.7597 87.081785 922.502828 92.276005 C 922.24328 97.60153 921.98016 102.278682 921.851205 106.563869 C 921.590219 110.851545 921.460368 114.357055 921.332109 117.214918 C 921.203851 120.072782 921.20351 122.021612 921.199783 123.058733 C 921.199798 125.52907 921.589861 129.68187 922.892498 133.188802 C 924.187295 136.826312 926.005191 139.815821 929.515865 139.946399 C 932.113068 139.943167 935.228716 138.127219 938.866597 136.305751 C 942.372447 134.486772 946.138958 132.799284 950.167922 132.80264 C 954.972126 132.799208 959.256091 136.567652 962.376965 141.115262 C 965.363859 145.791502 967.050651 150.985336 967.051207 153.713844 C 967.051624 160.598182 962.11528 166.182093 954.841868 170.594377 C 947.435697 175.014316 937.44018 178.258731 927.434843 180.337704 C 917.434671 182.417404 907.304432 183.325276 899.514277 183.324641 Z M 899.514277 183.324641 " stroke="#dc643c" stroke-width="4.821359" stroke-opacity="1" stroke-miterlimit="4"/><g fill="#f8d07c" fill-opacity="1"><g transform="translate(143.944559, 583.112312)"><g><path d="M 101.011719 -1.003906 C 107.148438 -2.066406 112.898438 -5.332031 118.355469 -10.324219 C 118.375 -9.636719 118.394531 -8.949219 118.511719 -8.277344 L 132.636719 -12.203125 C 135.75 -13.039062 137.84375 -13.5 138.898438 -13.683594 C 147.621094 -15.191406 155.980469 -15.355469 163.882812 -15.34375 C 171.6875 -15.3125 178.914062 -15.179688 185.433594 -16.308594 C 193.484375 -17.703125 202.96875 -19.9375 210.621094 -23.632812 L 210.078125 -23.339844 C 232.152344 -32.691406 249.402344 -46.535156 260.015625 -65.058594 C 270.628906 -83.578125 274.496094 -106.855469 269.636719 -134.9375 C 267.59375 -146.726562 263.949219 -159.226562 258.523438 -172.894531 C 255.675781 -180.203125 251.316406 -187.148438 243.609375 -191.738281 C 235.921875 -196.230469 224.925781 -198.175781 208.917969 -195.40625 C 192.59375 -192.183594 182.898438 -190.601562 177.589844 -187.613281 C 172.1875 -184.601562 171.386719 -180.121094 172.894531 -171.398438 C 173.179688 -169.769531 173.523438 -168.347656 173.898438 -167.328125 C 174.269531 -166.304688 174.679688 -165.09375 175.121094 -163.6875 C 178.445312 -153.601562 180.957031 -143.078125 182.648438 -133.894531 L 183.09375 -131.308594 C 183.246094 -130.445312 183.394531 -129.582031 183.445312 -128.703125 C 178.609375 -142.96875 173.261719 -153.890625 168.0625 -161.675781 C 162.867188 -169.464844 158.085938 -174.265625 154.554688 -176.417969 L 154.875 -176.273438 C 147.789062 -181.265625 139.742188 -182.144531 130.828125 -180.601562 C 122.488281 -179.15625 114.847656 -175.960938 106.9375 -172.613281 C 99.027344 -169.269531 90.925781 -165.894531 82.027344 -164.253906 L 65.757812 -160.15625 L 88.539062 -120.957031 C 89.3125 -114.773438 89.8125 -111.308594 89.894531 -108.558594 C 89.992188 -105.710938 89.574219 -103.566406 88.953125 -100.300781 C 86.367188 -112.390625 82.015625 -123.285156 76.949219 -132.574219 C 71.886719 -141.867188 66.191406 -149.667969 61.214844 -155.617188 C 56.136719 -161.550781 51.761719 -165.726562 49.144531 -167.742188 L 11.386719 -157.75 L 11.578125 -157.78125 C -5.746094 -153.5 -16.046875 -151.421875 -22.183594 -150.359375 C -24.003906 -150.042969 -28.046875 -149.441406 -31.832031 -149.082031 C -34.054688 -148.796875 -36.386719 -148.589844 -38.894531 -148.253906 C -38.863281 -148.0625 -38.730469 -147.296875 -38.5 -145.953125 L -37.734375 -141.546875 C -37.546875 -139.898438 -37.28125 -138.367188 -37.035156 -136.929688 L -36.570312 -134.246094 L -31.699219 -99.84375 C -30.167969 -100.109375 -27.324219 -100.800781 -24.003906 -101.570312 C -20.679688 -102.34375 -16.976562 -103.183594 -13.542969 -103.875 C -2.585938 -88.496094 6.800781 -70.773438 15.011719 -51.859375 C 23.21875 -32.945312 30.144531 -12.917969 36.132812 6.28125 C 41.8125 4.3125 46.105469 2.875 49.011719 1.980469 C 51.933594 1.175781 54.007812 0.621094 55.253906 0.402344 C 61.003906 -0.589844 65.996094 -0.269531 71.546875 -0.144531 L 71.449219 -0.128906 C 78.214844 0.179688 84.902344 0.601562 94.074219 -0.589844 C 96.492188 -0.320312 98.808594 -0.621094 101.011719 -1.003906 Z M 98.691406 -14.421875 C 89.585938 -12.84375 82.019531 -13.214844 74.851562 -13.550781 C 67.589844 -13.875 60.597656 -14.339844 52.929688 -13.015625 C 50.34375 -12.566406 47.597656 -11.894531 44.960938 -11.140625 C 39.238281 -28.808594 32.4375 -47.570312 23.8125 -66.019531 C 15.09375 -84.449219 4.742188 -102.601562 -7.863281 -118.976562 C -11.9375 -117.976562 -16.121094 -117.054688 -20.320312 -116.226562 L -23.117188 -136.375 L -20.625 -136.808594 C -14.972656 -137.785156 -4.078125 -139.871094 12.976562 -144.007812 L 46.007812 -152.785156 C 47.921875 -150.847656 50.902344 -147.316406 54.03125 -142.921875 C 57.164062 -138.527344 60.441406 -133.269531 63.367188 -128.347656 C 66.214844 -123.3125 68.53125 -118.480469 69.867188 -114.765625 C 77.628906 -93.304688 81.253906 -78.628906 83.359375 -69.320312 C 84.367188 -64.65625 85.15625 -61.238281 85.789062 -59.277344 C 86.347656 -57.203125 87.105469 -56.246094 88.0625 -56.414062 C 89.40625 -56.644531 91.089844 -58.320312 93.019531 -61.417969 C 94.953125 -64.515625 96.746094 -68.972656 98.40625 -74.789062 C 101.53125 -86.386719 103.746094 -103.253906 102.25 -125.011719 C 99.871094 -129.042969 97.382812 -133.152344 94.941406 -137.566406 C 92.402344 -141.964844 89.734375 -146.535156 86.84375 -151.269531 C 94.078125 -152.816406 101.832031 -155.933594 109.933594 -159.3125 L 109.949219 -159.21875 C 118.148438 -162.609375 126.25 -165.988281 133.152344 -167.183594 C 138.613281 -168.128906 143.429688 -167.679688 147.367188 -164.90625 C 148.96875 -164.195312 151.171875 -162.304688 153.863281 -159.316406 C 156.472656 -156.214844 159.316406 -151.769531 162.308594 -145.875 C 168.1875 -134.15625 174.441406 -116.285156 178.773438 -91.269531 C 179.6875 -85.996094 180.640625 -79.351562 181.347656 -73.550781 C 183.398438 -73.117188 184.996094 -72.996094 186.242188 -73.214844 C 191.992188 -74.210938 195.867188 -81.492188 197.648438 -92.859375 C 199.449219 -104.128906 198.984375 -119.351562 196.066406 -136.21875 C 194.273438 -146.570312 191.648438 -157.171875 188.09375 -168.007812 C 187.6875 -169.222656 187.277344 -170.433594 187 -171.472656 C 186.625 -172.492188 186.398438 -173.242188 186.3125 -173.722656 C 186.164062 -174.585938 186.542969 -175.242188 187.421875 -175.886719 C 188.199219 -176.515625 189.683594 -177.070312 191.648438 -177.707031 C 195.683594 -178.898438 201.996094 -180.089844 211.433594 -182.019531 C 222.183594 -183.78125 229.804688 -182.535156 235.339844 -179.644531 C 240.875 -176.75 244.023438 -172.261719 245.871094 -167.84375 C 250.925781 -155.195312 254.339844 -143.445312 256.214844 -132.613281 C 260.449219 -108.175781 257.007812 -88.132812 247.945312 -72.050781 C 238.804688 -55.855469 223.800781 -43.882812 204.660156 -35.828125 C 197.820312 -32.570312 188.957031 -30.742188 181.382812 -29.429688 C 176.015625 -28.5 169.363281 -28.730469 161.75 -28.792969 C 154.136719 -28.859375 145.488281 -28.644531 136.574219 -27.101562 L 133.699219 -26.601562 C 132.742188 -26.4375 131.800781 -26.175781 130.761719 -25.898438 C 129.804688 -38.269531 128.78125 -48.160156 127.253906 -56.980469 L 126.742188 -59.949219 C 124.726562 -47.0625 120.972656 -36.246094 116.015625 -28.378906 C 111.078125 -20.417969 104.921875 -15.5 98.691406 -14.421875 Z M 98.691406 -14.421875 "/></g></g></g><g fill="#f8d07c" fill-opacity="1"><g transform="translate(423.430959, 534.723347)"><g><path d="M 51.730469 7.429688 C 60.261719 5.953125 66.421875 3.898438 70.960938 1.042969 C 75.519531 -1.722656 78.359375 -5.273438 80.363281 -9.667969 C 84.953125 -6.515625 89.574219 -4.351562 94.984375 -3.316406 C 100.300781 -2.261719 106.410156 -2.332031 113.980469 -3.644531 C 122.511719 -5.121094 129.925781 -8.476562 135.765625 -13.535156 C 141.601562 -18.59375 145.828125 -25.542969 147.882812 -34.191406 C 147.464844 -34.910156 146.636719 -36.839844 145.289062 -40.0625 C 143.84375 -43.265625 142.25 -47.925781 140.273438 -54.199219 C 136.34375 -66.648438 131.296875 -85.515625 126.503906 -112.625 C 125.339844 -112.523438 124.058594 -112.496094 122.78125 -112.472656 C 120.429688 -112.363281 117.296875 -112.214844 113.828125 -112.304688 L 117.054688 -120.464844 C 106.460938 -124.0625 97.757812 -126.996094 89.589844 -129.136719 C 81.324219 -131.257812 73.800781 -132.523438 65.546875 -132.871094 C 57.292969 -133.21875 48.4375 -132.476562 37.703125 -130.617188 C 16.617188 -126.964844 1.710938 -117.277344 -6.816406 -102.671875 C -15.441406 -88.050781 -17.84375 -68.285156 -13.710938 -44.417969 C -10.527344 -26.015625 -3.367188 -11.460938 7.695312 -2.320312 C 18.65625 6.839844 33.328125 10.617188 51.730469 7.429688 Z M 49.410156 -5.988281 C 35.511719 -3.582031 24.328125 -6.582031 15.96875 -13.820312 C 7.625 -20.964844 2.210938 -32.269531 -0.292969 -46.742188 C -3.03125 -62.554688 -2.253906 -78.585938 3.804688 -91.480469 C 9.882812 -104.28125 21.335938 -113.964844 40.027344 -117.199219 C 54.59375 -119.722656 65.339844 -119.804688 74.449219 -118.519531 C 83.554688 -117.234375 90.910156 -114.65625 99.023438 -111.71875 L 92.773438 -98.195312 C 97.21875 -98.175781 102.03125 -98.320312 106.0625 -98.425781 L 115.113281 -98.609375 C 119.390625 -74.472656 124.277344 -57.648438 127.910156 -46.925781 C 129.71875 -41.609375 131.085938 -37.699219 132.1875 -35.324219 C 133.292969 -32.949219 133.777344 -31.847656 133.648438 -32.023438 L 132.703125 -30.082031 C 132.039062 -28.785156 130.914062 -27.304688 129.324219 -25.648438 C 126.050781 -22.316406 120.476562 -18.589844 111.660156 -17.0625 C 100.925781 -15.203125 92.902344 -16.480469 86.914062 -20.28125 C 80.925781 -24.082031 76.953125 -30.5 74.324219 -38.832031 L 70.679688 -38.792969 C 69.96875 -34.917969 69.433594 -31.171875 69.054688 -27.652344 C 68.675781 -24.132812 67.867188 -20.832031 66.683594 -17.960938 C 64.164062 -11.996094 59.472656 -7.730469 49.410156 -5.988281 Z M 61.089844 -40.585938 C 65.304688 -41.316406 66.675781 -47.082031 66.695312 -54.390625 C 66.617188 -61.683594 65.429688 -70.261719 64.34375 -77.085938 L 64.261719 -77.5625 C 61.582031 -79.371094 58.9375 -80.394531 56.296875 -80.234375 C 52.894531 -79.9375 51.691406 -77.757812 51.476562 -73.871094 C 51.261719 -69.980469 52.175781 -64.710938 53.285156 -58.289062 C 54.082031 -53.6875 55.167969 -49.136719 56.53125 -45.820312 C 57.816406 -42.390625 59.269531 -40.273438 61.089844 -40.585938 Z M 61.089844 -40.585938 "/></g></g><g transform="translate(565.570305, 510.114008)"><g><path d="M 55.515625 6.480469 C 62.511719 5.269531 67.675781 2.597656 71.445312 -0.722656 C 75.121094 -4.023438 77.207031 -7.9375 78.429688 -11.703125 C 86.210938 -2.683594 98.4375 -1.050781 117.511719 -4.351562 C 127.957031 -6.160156 137.285156 -10.441406 143.414062 -20.089844 C 149.542969 -29.742188 152.410156 -44.550781 150.425781 -67.40625 C 150.050781 -71.289062 149.429688 -76.019531 148.78125 -79.757812 C 145.480469 -98.832031 138.882812 -115.261719 128.117188 -126.132812 C 117.367188 -136.90625 102.253906 -142.089844 82.222656 -138.621094 C 72.734375 -136.976562 66.003906 -133.640625 60.902344 -128.90625 C 60.683594 -130.746094 60.640625 -132.121094 60.554688 -133.191406 C 60.535156 -133.878906 60.453125 -134.359375 60.367188 -134.835938 L -21.894531 -115.066406 L -0.414062 10.140625 L 5.238281 9.164062 C 14.441406 7.570312 20.050781 6.894531 23.964844 6.710938 C 27.785156 6.542969 29.996094 6.75 32.125 7.074219 C 35.050781 7.457031 37.964844 7.742188 41.628906 7.796875 C 45.289062 7.855469 49.667969 7.492188 55.515625 6.480469 Z M 53.191406 -6.9375 C 49.742188 -6.339844 46.832031 -6.035156 44.484375 -5.925781 C 39.6875 -5.6875 35.992188 -5.933594 32.628906 -6.539062 C 30.917969 -6.734375 29.109375 -6.914062 27.109375 -7.0625 C 23.03125 -7.246094 18.027344 -7.070312 10.644531 -5.792969 L -6.289062 -104.738281 L 48.191406 -117.921875 C 48.609375 -112.664062 49.203125 -107.535156 49.761719 -102.597656 C 50.03125 -100.46875 50.300781 -98.34375 50.585938 -96.125 L 51.425781 -89.558594 C 51.964844 -85.304688 52.453125 -81.34375 52.933594 -78.5625 L 56.582031 -78.601562 C 58.722656 -91.3125 60.621094 -102.007812 64.648438 -110.109375 C 68.675781 -118.210938 74.578125 -123.476562 84.542969 -125.203125 C 99.59375 -127.808594 111.085938 -123.578125 119.3125 -114.835938 C 127.554688 -105.996094 132.707031 -92.769531 135.363281 -77.433594 C 139.34375 -54.433594 138.058594 -40.191406 133.957031 -31.386719 C 129.855469 -22.582031 122.761719 -19.082031 115.1875 -17.769531 C 104.933594 -15.996094 97.6875 -16.222656 92.519531 -19.277344 C 87.253906 -22.3125 84.195312 -28.003906 82.554688 -37.492188 L 82.1875 -39.601562 C 82.070312 -40.269531 81.9375 -41.039062 81.902344 -41.820312 C 81.3125 -46.359375 80.90625 -50.433594 80.578125 -54.03125 C 80.003906 -61.335938 79.632812 -66.898438 79.398438 -71.101562 C 79.242188 -73.148438 79.023438 -74.984375 78.773438 -76.421875 C 78.359375 -78.820312 77.660156 -80.574219 76.789062 -81.609375 C 74.875 -83.546875 70.507812 -83.679688 68.6875 -78.230469 C 66.789062 -72.671875 65.996094 -64.140625 65.929688 -54.257812 C 65.863281 -44.375 66.035156 -34.828125 66.242188 -27.363281 C 66.296875 -23.621094 66.1875 -20.835938 66.007812 -19.03125 C 65.953125 -17.046875 65.316406 -14.46875 63.347656 -12.152344 C 61.378906 -9.835938 58.175781 -7.800781 53.191406 -6.9375 Z M 53.191406 -6.9375 "/></g></g><g transform="translate(719.306994, 483.496758)"><g><path d="M 54.855469 8.371094 C 62.140625 7.109375 71.527344 4.300781 80.488281 0.179688 C 89.449219 -3.9375 98.019531 -9.171875 104.007812 -15.636719 C 109.996094 -22.105469 113.453125 -29.515625 112.007812 -37.851562 C 110.929688 -44.082031 106.886719 -50.886719 99.847656 -56.773438 C 93.511719 -61.996094 86.886719 -63.21875 81.132812 -62.222656 C 78.164062 -61.707031 75.675781 -60.683594 73.507812 -59.519531 C 72.921875 -63.464844 72.199219 -69.363281 71.386719 -76.328125 C 77.792969 -77.535156 83.710938 -82.117188 87.867188 -87.769531 C 91.925781 -93.410156 94.183594 -100.316406 93.070312 -106.738281 C 91.746094 -114.40625 87.5625 -120.886719 82.351562 -125.316406 C 77.144531 -129.746094 70.8125 -132.105469 65.332031 -131.253906 C 64.359375 -140.859375 63.339844 -150.753906 62.539062 -158.214844 L 61.246094 -170.824219 L -22.964844 -155.453125 L -21.234375 -142.03125 C -20.632812 -137.992188 -20.046875 -133.453125 -19.390625 -128.53125 L -17.394531 -113.574219 L -23.144531 -112.578125 L -14.332031 -61.6875 L -10.308594 -62.382812 C -9.46875 -56.40625 -8.703125 -51.40625 -8.101562 -47.363281 L -6.949219 -39.566406 C -4.691406 -26.53125 0.464844 -14.988281 8.769531 -6.355469 C 17.078125 2.277344 28.628906 7.976562 43.746094 9.207031 C 46.851562 9.460938 50.640625 9.101562 54.855469 8.371094 Z M 52.53125 -5.046875 C 49.371094 -4.5 46.476562 -4.097656 44.863281 -4.3125 C 33.550781 -5.214844 24.742188 -9.910156 18.414062 -16.8125 C 12.003906 -23.597656 8.046875 -32.785156 6.304688 -42.847656 C 6.121094 -43.902344 5.839844 -45.53125 5.550781 -47.753906 C 4.773438 -52.257812 3.902344 -58.425781 2.863281 -66.144531 C 2.3125 -69.898438 1.804688 -73.957031 1.171875 -78.191406 L -3.332031 -77.410156 L -7.800781 -101.515625 L -0.695312 -103.238281 L -7.816406 -144.355469 L 49.113281 -154.804688 C 49.457031 -151.113281 49.945312 -147.148438 50.402344 -142.785156 L 53.378906 -114.773438 L 67.367188 -117.785156 C 69.667969 -118.183594 72.363281 -116.875 74.746094 -114.523438 C 77.03125 -112.152344 78.921875 -108.632812 79.652344 -104.414062 C 80.183594 -101.347656 79.101562 -97.902344 77.007812 -95.171875 C 74.933594 -92.34375 71.746094 -90.210938 68.585938 -89.664062 L 56.410156 -87.558594 C 56.871094 -83.195312 57.394531 -79.039062 57.863281 -75.171875 C 58.355469 -71.210938 58.757812 -67.726562 59.210938 -64.546875 C 59.566406 -61.351562 59.917969 -58.746094 60.1875 -56.621094 C 60.457031 -54.496094 60.707031 -53.058594 60.839844 -52.292969 C 61.15625 -50.46875 61.972656 -47.453125 63.378906 -45.03125 C 64.804688 -42.511719 66.527344 -40.542969 69.128906 -40.894531 C 71.046875 -41.226562 73.117188 -42.964844 75.566406 -44.773438 C 77.921875 -46.5625 80.488281 -48.289062 83.457031 -48.804688 C 87.003906 -49.417969 90.648438 -47.1875 93.527344 -44.230469 C 96.332031 -41.160156 98.242188 -37.542969 98.589844 -35.53125 C 99.46875 -30.449219 96.539062 -25.699219 91.738281 -21.511719 C 86.839844 -17.304688 79.871094 -13.632812 72.757812 -10.820312 C 65.644531 -8.007812 58.285156 -6.042969 52.53125 -5.046875 Z M 52.53125 -5.046875 "/></g></g><g transform="translate(824.354009, 465.30941)"><g><path d="M 69.558594 4.34375 C 76.84375 3.082031 85.269531 0.4375 92.984375 -3.464844 C 100.703125 -7.367188 107.976562 -12.671875 112.730469 -19.417969 C 117.488281 -26.164062 119.929688 -34.289062 118.253906 -43.96875 C 117.855469 -46.269531 117.007812 -48.886719 115.566406 -51.5 C 114.144531 -54.019531 112.148438 -56.4375 109.5625 -58.257812 C 112.421875 -61.125 114.691406 -63.984375 116.351562 -66.9375 C 119.703125 -72.652344 121.222656 -78.144531 121.574219 -82.945312 C 121.832031 -87.730469 121.378906 -91.5 120.789062 -93.765625 L 120.246094 -95.746094 C 118.257812 -107.25 113.277344 -115.46875 106.765625 -121.152344 C 100.15625 -126.820312 91.886719 -130.125 83.304688 -131.800781 C 74.722656 -133.472656 65.8125 -133.609375 57.902344 -133.128906 C 49.988281 -132.644531 42.972656 -131.53125 38.375 -130.734375 C 17.957031 -127.199219 3.015625 -118.292969 -5.738281 -103.847656 C -14.472656 -89.300781 -17.019531 -69.21875 -12.554688 -43.433594 C -9.433594 -25.414062 -2.820312 -11.160156 10.027344 -2.527344 C 22.875 6.109375 41.859375 9.140625 69.558594 4.34375 Z M 67.234375 -9.074219 C 44.617188 -5.15625 29.21875 -7.429688 18.988281 -14.046875 C 8.664062 -20.652344 3.269531 -31.859375 0.863281 -45.757812 C -2.71875 -66.460938 -0.839844 -82.976562 5.960938 -95.011719 C 12.761719 -107.046875 24.5 -114.511719 40.695312 -117.316406 C 45.679688 -118.179688 53.957031 -119.414062 63.039062 -119.40625 C 72.125 -119.398438 81.902344 -118.230469 90.050781 -114.507812 C 98.210938 -110.6875 104.554688 -104.285156 106.777344 -93.710938 C 108.390625 -84.414062 106.453125 -76.773438 102.382812 -70.640625 C 98.214844 -64.488281 91.78125 -60.019531 84.480469 -56.582031 C 77.082031 -53.128906 68.890625 -50.824219 60.9375 -49.445312 C 58.253906 -48.980469 55.648438 -48.628906 53.125 -48.390625 C 53.832031 -44.859375 55.136719 -41.332031 56.847656 -38.867188 C 58.460938 -36.378906 60.675781 -34.988281 63.742188 -35.519531 C 68.441406 -36.332031 73.488281 -39.671875 77.484375 -42.242188 L 77.582031 -42.257812 C 81.769531 -44.859375 86.746094 -47.496094 90.195312 -48.09375 C 90.867188 -48.210938 91.34375 -48.292969 91.648438 -48.246094 C 93.617188 -48.292969 96.191406 -48.242188 98.351562 -47.730469 C 100.417969 -47.199219 102.296875 -46.042969 102.917969 -44.175781 C 104.832031 -37.105469 103.382812 -31.226562 100.164062 -26.425781 C 96.964844 -21.527344 91.695312 -17.75 85.78125 -14.851562 C 79.867188 -11.953125 73.273438 -10.121094 67.234375 -9.074219 Z M 50.636719 -62.175781 C 52.601562 -62.808594 54.5 -63.238281 56.324219 -63.554688 C 58.144531 -63.867188 59.628906 -64.421875 60.984375 -65.148438 C 63.597656 -66.589844 65.132812 -69.125 64.117188 -74.972656 C 63.855469 -76.507812 63.28125 -78.675781 62.117188 -80.253906 C 60.957031 -81.828125 59.289062 -82.921875 56.699219 -82.472656 C 53.25 -81.875 51.375 -79.578125 50.519531 -75.972656 C 49.664062 -72.371094 49.789062 -67.652344 50.636719 -62.175781 Z M 50.636719 -62.175781 "/></g></g><g transform="translate(949.336953, 443.670449)"><g><path d="M 52.691406 7.265625 C 61.21875 5.789062 67.1875 3.765625 71.441406 0.957031 C 75.710938 -1.753906 78.359375 -5.273438 80.363281 -9.667969 C 84.953125 -6.515625 89.574219 -4.351562 94.984375 -3.316406 C 100.300781 -2.261719 106.410156 -2.332031 113.980469 -3.644531 C 117.480469 -3.953125 122.570312 -5.921875 128.75 -10.148438 C 134.945312 -14.28125 142.132812 -20.660156 149.71875 -29.871094 C 145.351562 -37.40625 140.914062 -51.644531 136.421875 -69.03125 C 131.949219 -86.320312 127.582031 -106.988281 123.597656 -127.71875 C 119.53125 -148.339844 115.757812 -169.007812 112.625 -186.53125 C 107.085938 -184.882812 102.777344 -183.542969 99.566406 -182.691406 C 96.375 -181.742188 94.300781 -181.1875 93.339844 -181.019531 C 86.917969 -179.910156 82.054688 -180.644531 77.570312 -181.449219 C 71.871094 -182.4375 66.398438 -183.265625 59.496094 -182.070312 C 49.433594 -180.328125 43.574219 -175.957031 40.199219 -170.933594 C 36.824219 -165.90625 36.238281 -160.175781 36.746094 -155.527344 C 37.425781 -149.324219 38.492188 -142.601562 39.554688 -136.464844 L 40.5 -131.003906 C 40.003906 -131.015625 39.621094 -130.949219 39.140625 -130.867188 L 37.796875 -130.632812 C 16.710938 -126.984375 1.691406 -117.375 -6.835938 -102.769531 C -15.457031 -88.144531 -17.765625 -68.398438 -13.632812 -44.53125 C -10.398438 -25.839844 -3.0625 -11.414062 8.09375 -2.289062 C 19.25 6.835938 34.289062 10.449219 52.691406 7.265625 Z M 50.367188 -6.152344 C 36.46875 -3.746094 25.113281 -6.617188 16.558594 -13.824219 C 8.023438 -20.9375 2.308594 -32.285156 -0.214844 -46.855469 C -3.75 -67.269531 -1.613281 -83.433594 5.414062 -95.3125 C 12.359375 -107.078125 24.117188 -114.445312 40.121094 -117.214844 C 45.203125 -118.09375 51.25 -117.367188 57.453125 -115.179688 C 55.921875 -122.320312 54.546875 -129.683594 53.152344 -137.734375 C 52.09375 -143.867188 51.027344 -150.59375 50.296875 -157.082031 C 50.0625 -159.015625 50.527344 -161.464844 52.207031 -163.730469 C 53.808594 -165.882812 56.835938 -167.789062 61.820312 -168.652344 C 67.1875 -169.582031 71.796875 -168.605469 76.96875 -167.820312 C 82.136719 -167.039062 87.996094 -166.273438 95.664062 -167.601562 C 97.484375 -167.917969 99.976562 -168.347656 101.941406 -168.984375 C 103.414062 -161.046875 104.875 -152.613281 106.496094 -143.8125 C 108.117188 -135.011719 109.742188 -126.207031 111.476562 -117.328125 C 114.929688 -99.664062 118.671875 -82.046875 122.457031 -67.007812 C 126.265625 -51.871094 130.148438 -39.117188 134.007812 -31.097656 C 132.65625 -29.777344 131.320312 -28.363281 129.890625 -26.929688 C 128.476562 -25.402344 126.839844 -24.035156 125.183594 -22.757812 C 121.683594 -20.179688 117.410156 -18.058594 111.660156 -17.0625 C 100.925781 -15.203125 92.617188 -16.429688 86.4375 -20.195312 C 80.253906 -23.964844 75.992188 -30.335938 73.367188 -38.664062 L 70.679688 -38.792969 C 69.074219 -29.828125 68.078125 -22.449219 65.492188 -16.867188 C 62.808594 -11.269531 58.515625 -7.5625 50.367188 -6.152344 Z M 61.183594 -40.605469 C 64.539062 -41.183594 65.984375 -45.382812 66.457031 -51.78125 C 66.847656 -58.070312 65.980469 -66.507812 64.722656 -75.472656 C 62.253906 -78.894531 59.460938 -80.78125 55.722656 -80.132812 C 52.75 -79.617188 51.566406 -77.339844 51.429688 -73.566406 C 51.292969 -69.789062 52.207031 -64.519531 53.285156 -58.289062 C 54.082031 -53.6875 55.167969 -49.136719 56.53125 -45.820312 C 57.816406 -42.390625 59.363281 -40.289062 61.183594 -40.605469 Z M 61.183594 -40.605469 "/></g></g></g><path stroke-linecap="butt" transform="matrix(0.737941, -0.127764, 0.127764, 0.737941, 107.088338, 444.237631)" fill="none" stroke-linejoin="miter" d="M 157.866097 199.693001 C 166.176967 199.692089 174.492058 196.70111 182.802933 191.380284 C 182.672023 192.289265 182.541114 193.198247 182.543138 194.103777 L 202.026568 192.157133 C 206.313081 191.766482 209.167652 191.636082 210.596218 191.639919 C 222.416831 191.63792 233.457636 193.327149 243.845922 195.146902 C 254.108193 196.960717 263.590949 198.782494 272.420606 198.781414 C 283.330549 198.780549 296.317958 198.001277 307.227782 194.882552 L 306.45181 195.145212 C 337.624704 187.869829 363.468594 173.584343 381.650903 151.636112 C 399.834102 129.68274 410.224474 99.938031 410.227916 61.884037 C 410.225462 45.907989 408.276913 28.63689 404.252635 9.413082 C 402.175994 -0.850497 398.016488 -10.97711 388.927139 -18.770597 C 379.831852 -26.43807 365.807596 -31.5023 344.114614 -31.499774 C 321.909041 -30.982543 308.787565 -31.110488 301.12668 -28.382077 C 293.333751 -25.655354 291.254425 -19.943775 291.256423 -8.123163 C 291.255408 -5.915971 291.383784 -3.96693 291.644035 -2.534988 C 291.905176 -1.108186 292.163832 0.577565 292.424251 2.528294 C 294.500383 16.555425 295.407862 30.973088 295.541275 43.44108 L 295.537222 46.949934 C 295.5419 48.115302 295.540549 49.28492 295.412293 50.45374 C 292.294175 30.582215 287.746259 14.994333 282.679122 3.567193 C 277.618015 -7.864196 272.420089 -15.264494 268.264366 -18.900685 L 268.653763 -18.642703 C 260.473227 -26.824068 250.081153 -29.814328 238.001591 -29.814815 C 226.699765 -29.812985 215.923505 -27.343403 204.749425 -24.746841 C 193.580484 -22.149388 182.151705 -19.549282 170.071346 -19.422864 L 147.731489 -17.732563 L 168.776056 39.02544 C 168.385087 47.337276 168.252777 52.01495 167.734278 55.651766 C 167.214982 59.415486 166.175672 62.146941 164.619767 66.302881 C 163.966313 49.806527 160.722713 34.481521 156.173782 21.100831 C 151.629991 7.72103 145.912822 -3.834534 140.72042 -12.795442 C 135.395974 -21.758037 130.586815 -28.25466 127.602566 -31.502758 L 75.649095 -26.957101 L 75.908044 -26.954616 C 52.13962 -25.268151 38.112782 -24.875285 29.801912 -24.874372 C 27.330633 -24.878762 21.879473 -25.00736 16.812403 -25.397651 C 13.823134 -25.528778 10.707759 -25.787607 7.331747 -25.916877 C 7.329262 -25.657928 7.328708 -24.615215 7.331867 -22.799016 L 7.329453 -16.823133 C 7.201534 -14.616739 7.201317 -12.536452 7.197648 -10.589098 L 7.197936 -6.95245 L 5.77109 39.414605 C 7.851377 39.414822 11.74432 39.157181 16.294122 38.89681 C 20.838786 38.635549 25.902236 38.37412 30.577255 38.246591 C 41.490062 60.976284 49.802947 86.431906 56.297485 113.18721 C 62.792022 139.942513 67.336966 167.868905 70.842234 194.493083 C 78.763371 193.196614 84.73812 192.288359 88.766482 191.768318 C 92.793156 191.380321 95.649415 191.117877 97.337819 191.11906 C 105.129902 191.118316 111.625077 192.676922 118.899676 194.105803 L 118.767632 194.104115 C 127.603898 196.052167 136.306434 198.130575 148.639972 198.651445 C 151.758968 199.561995 154.876031 199.68878 157.866097 199.693001 Z M 157.865547 181.504623 C 145.526147 181.506789 135.654792 179.300125 126.301426 177.220197 C 116.820266 175.144611 107.727536 172.935125 97.336379 172.935821 C 93.832665 172.932657 90.065737 173.196235 86.430945 173.583266 C 82.92032 149.038486 78.24729 122.799701 71.10209 96.561665 C 63.829095 70.32797 54.348909 44.093261 41.489932 19.671495 C 35.906007 20.065137 30.186587 20.324156 24.473993 20.452022 L 25.38383 -6.694052 L 28.760639 -6.691686 C 36.425817 -6.693229 51.228703 -6.951733 74.609586 -8.509437 L 120.068555 -12.538553 C 122.14551 -9.553409 125.261586 -4.223337 128.38323 2.266964 C 131.498845 8.761515 134.613109 16.425683 137.341351 23.567782 C 139.941001 30.841126 141.887964 37.726208 142.798537 42.923221 C 148.121889 72.927079 149.554256 93.057258 150.20397 105.784031 C 150.46236 112.149143 150.721933 116.82585 151.112969 119.550862 C 151.369384 122.411371 152.149312 123.838005 153.445834 123.840154 C 155.267172 123.837885 157.863088 122.021734 161.112705 118.386654 C 164.358072 114.745545 167.737464 109.290814 171.240602 102.020682 C 177.993959 87.473683 184.751081 65.781183 187.738046 36.819126 C 185.531581 30.974272 183.18873 24.999936 180.982987 18.631155 C 178.64342 12.270966 176.175184 5.645001 173.449595 -1.237259 C 183.320999 -1.629669 194.232755 -3.964629 205.661534 -6.564736 L 205.659846 -6.432692 C 217.220669 -9.03111 228.649449 -11.631217 238.002142 -11.626437 C 245.403232 -11.631354 251.637771 -9.943189 256.18562 -5.392155 C 258.131714 -4.097103 260.599662 -1.107786 263.459997 3.436926 C 266.1866 8.111994 268.915472 14.6084 271.513771 23.051363 C 276.574873 39.802665 280.732156 64.739957 280.733397 98.639406 C 280.734771 105.785797 280.475215 114.745012 280.084077 122.538061 C 282.682598 123.580822 284.757914 124.098936 286.446318 124.100119 C 294.243541 124.100265 300.996171 115.397105 305.929079 100.847235 C 310.865438 86.430299 313.725689 66.30224 313.724515 43.43964 C 313.723531 29.411835 312.684805 14.865581 310.476293 -0.200813 C 310.217637 -1.886563 309.959872 -3.577454 309.825635 -5.003458 C 309.565384 -6.4354 309.438143 -7.473772 309.438773 -8.119463 C 309.434984 -9.289971 310.089022 -10.071326 311.387064 -10.720008 C 312.553062 -11.370378 314.631493 -11.756904 317.361645 -12.14705 C 322.948055 -12.79964 331.518671 -12.924971 344.375892 -13.319189 C 358.920796 -13.188297 368.663895 -9.812813 375.287061 -4.743665 C 381.911116 0.320344 385.031073 6.942689 386.460768 13.177108 C 390.223905 30.974114 392.045213 47.206842 392.044677 61.885477 C 392.043096 95.006301 382.94968 120.592585 367.36384 139.681953 C 351.648517 158.907707 329.179966 171.247315 302.16306 177.479529 C 292.421888 180.207722 280.343292 180.599118 270.085069 180.596362 C 262.811774 180.596938 254.106753 178.777478 244.10432 176.961008 C 234.107026 175.145429 222.675229 173.452027 210.595668 173.45154 L 206.699182 173.454482 C 205.402659 173.452333 204.104449 173.582228 202.673305 173.715574 C 204.232182 157.221125 205.139551 143.969921 205.143489 132.023294 L 205.142235 127.994763 C 199.554828 144.490467 192.151991 157.866329 183.843169 167.088781 C 175.527519 176.442386 166.308461 181.505398 157.865547 181.504623 Z M 469.842456 199.560457 C 481.403231 199.561113 489.976088 198.261024 496.599399 195.53295 C 503.221023 192.93692 507.766196 188.912107 511.403739 183.586766 C 516.729584 188.78067 522.317417 192.675397 529.198782 195.274861 C 535.953242 197.873527 544.007264 199.172681 554.266376 199.170297 C 565.827151 199.170953 576.346058 196.445076 585.17661 191.118943 C 594.012301 185.793699 601.156981 177.60836 605.830339 166.697792 C 605.43812 165.661184 604.793275 162.934576 603.754279 158.387595 C 602.582349 153.844066 601.541882 147.348843 600.375524 138.645629 C 598.035983 121.370357 595.699702 95.393223 595.568062 58.639203 C 594.013389 58.507664 592.32233 58.246643 590.636411 57.986511 C 587.516694 57.599888 583.361091 57.081557 578.813529 56.167171 L 584.916588 46.171109 C 571.803218 39.025457 561.020906 33.183279 550.762058 28.506302 C 540.371167 23.827636 530.760111 20.45384 519.979775 18.116266 C 509.199438 15.778693 497.379378 14.737978 482.832787 14.73913 C 454.259281 14.736126 432.434613 24.090547 417.888328 41.36427 C 403.215137 58.637194 395.551975 84.095271 395.547572 116.437469 C 395.54942 141.375217 401.654489 162.155603 414.121946 176.700826 C 426.461608 191.25039 444.904708 199.562305 469.842456 199.560457 Z M 469.841016 181.377218 C 451.012086 181.378029 436.981388 174.883452 427.632802 163.450831 C 418.276499 152.154504 413.733554 136.048725 413.730811 116.436029 C 413.736079 95.003775 418.409707 74.093932 429.318162 58.508903 C 440.230958 43.051668 457.505486 32.920044 482.829088 32.921479 C 502.573827 32.920424 516.730973 35.260364 528.418142 39.02537 C 540.110451 42.791265 549.200647 47.858774 559.200882 53.57084 L 547.903367 69.935461 C 553.746653 70.9789 560.111304 71.884989 565.439179 72.664509 L 577.383825 74.483757 C 577.513322 107.214386 580.115427 130.463778 582.452531 145.398925 C 583.621927 152.800476 584.530014 158.256438 585.438317 161.632113 C 586.345731 165.012928 586.738118 166.568322 586.60767 166.312826 L 584.917453 168.645739 C 583.752589 170.206778 581.930068 171.897451 579.466196 173.71529 C 574.40038 177.353528 566.217593 180.986747 554.264936 180.987058 C 539.718345 180.98821 529.458146 177.48085 522.445247 171.116146 C 515.432348 164.751442 511.662407 155.401598 510.106702 143.841329 L 505.302754 143.06253 C 503.484693 147.998859 501.92213 152.80474 500.62703 157.349908 C 499.326791 161.894186 497.505908 166.05189 495.300692 169.555479 C 490.621907 176.828509 483.482078 181.37809 469.841016 181.377218 Z M 493.089726 138.513038 C 498.805771 138.518106 501.923056 131.244691 503.613587 121.633342 C 505.172074 112.020306 505.559472 100.457676 505.689469 91.237825 L 505.690989 90.586994 C 502.57132 87.601296 499.325084 85.652375 495.819514 85.262469 C 491.271231 84.872009 489.196034 87.471756 488.028007 92.536509 C 486.85998 97.601262 486.856215 104.746763 486.858093 113.449515 C 486.858333 119.685237 487.245315 125.919103 488.283514 130.592988 C 489.19312 135.398119 490.622696 138.514677 493.089726 138.513038 Z M 667.652401 199.168027 C 677.138028 199.169356 684.540041 196.835481 690.25589 193.325667 C 695.838805 189.819304 699.474829 185.144794 701.941234 180.468934 C 710.125217 194.103145 725.843815 199.042544 751.687093 199.038672 C 765.846941 199.039376 779.094145 195.53661 789.356567 184.23329 C 799.612959 172.93422 806.75854 154.103916 809.354007 123.581325 C 809.745987 118.382211 810.005494 112.02207 810.003903 106.955966 C 810.00606 81.108438 805.068171 57.989278 793.380355 41.234041 C 781.690851 24.610849 762.987331 14.348205 735.842391 14.349039 C 722.985094 14.346234 713.375168 17.20302 705.579536 22.268979 C 705.709941 19.803636 705.97176 17.985673 706.097362 16.557015 C 706.228272 15.648033 706.229791 14.997202 706.231311 14.346372 L 593.491553 21.622567 L 593.231983 191.248478 L 600.897161 191.246936 C 613.363465 191.245567 620.896676 191.639359 626.094194 192.285148 C 631.158779 192.934388 634.014484 193.714657 636.741597 194.626173 C 640.509827 195.792051 644.273716 196.830135 649.081116 197.741867 C 653.888516 198.6536 659.732524 199.173113 667.652401 199.168027 Z M 667.656101 180.985678 C 662.97674 180.985413 659.082739 180.729406 655.963912 180.337643 C 649.598463 179.55846 644.793549 178.387779 640.510705 176.831076 C 638.299003 176.18348 635.961287 175.529947 633.362842 174.884207 C 628.039141 173.713694 621.415542 172.805121 611.416267 172.80485 L 611.675896 38.766792 L 686.358068 33.83153 C 685.710299 40.844358 685.318026 47.726737 684.928239 54.350168 C 684.798801 57.207393 684.669362 60.064617 684.538236 63.053886 L 684.147434 71.884509 C 683.888557 77.598958 683.627824 82.926665 683.632453 86.691107 L 688.436401 87.469906 C 694.148228 71.233948 699.08652 57.600777 706.230696 47.859077 C 713.374872 38.117377 722.334813 32.533093 735.843831 32.532278 C 756.234262 32.531852 770.390681 40.715631 779.222841 54.091524 C 788.053313 67.599461 791.820162 86.169953 791.821553 106.952267 C 791.823641 138.125737 786.888535 156.571203 779.481406 167.220196 C 772.079416 177.87008 761.949015 180.859078 751.690792 180.856322 C 737.789892 180.858104 728.307934 178.909422 722.204353 173.713201 C 715.967838 168.520432 713.245288 160.336511 713.242953 147.478324 L 713.245488 144.620301 C 713.244353 143.709632 713.244017 142.672058 713.371475 141.630143 C 713.633635 135.52984 714.022961 130.070888 714.409877 125.267906 C 715.323471 115.527335 716.102318 108.124313 716.75139 102.540941 C 717.012074 99.812309 717.13823 97.340937 717.141898 95.393584 C 717.137437 92.147929 716.62215 89.681957 715.711866 88.121591 C 713.634911 85.136447 707.919327 83.9669 704.283087 90.721697 C 700.514005 97.601711 697.528254 108.640367 695.188776 121.633034 C 692.850188 134.620563 690.902515 147.215243 689.473587 157.088915 C 688.6931 162.024907 687.915653 165.659238 687.267259 167.997844 C 686.748424 170.597086 685.318289 173.843154 682.20038 176.442348 C 679.08336 179.036403 674.410609 180.98527 667.656101 180.985678 Z M 874.686398 201.510698 C 884.558768 201.51017 897.549384 199.948023 910.277003 196.57233 C 923.004621 193.196637 935.472787 188.262098 944.824996 181.115348 C 954.176315 173.973737 960.412644 165.011797 960.410813 153.709971 C 960.410699 145.272197 956.641479 135.398427 948.722133 126.044791 C 941.574829 117.735295 933.136935 114.617549 925.339713 114.617403 C 921.316322 114.619547 917.809401 115.399259 914.691877 116.436952 C 914.819676 111.112697 915.212502 103.187605 915.73093 93.833854 C 924.434479 93.70507 933.263511 89.029768 940.020266 82.53469 C 946.644087 76.043063 951.187838 67.470933 951.185959 58.768181 C 951.190403 48.377914 947.163201 38.893541 941.31541 31.883607 C 935.473648 24.869423 927.680143 20.32285 920.275602 20.194834 C 921.183936 7.335513 922.096443 -5.914801 922.742405 -15.913446 L 923.913573 -32.797922 L 809.618105 -31.762083 L 808.837468 -13.708956 C 808.707981 -8.252657 808.444931 -2.147215 808.187188 4.477904 L 807.407224 24.606179 L 799.615141 24.606923 L 799.616272 93.575438 L 805.068229 93.577131 C 804.811789 101.631706 804.680153 108.384527 804.551556 113.835687 L 804.291615 124.356402 C 804.292887 142.020854 808.446603 158.387438 817.406465 171.637224 C 826.372357 184.882761 840.270409 195.017437 859.879556 200.079908 C 863.907533 201.121367 868.974603 201.511659 874.686398 201.510698 Z M 874.685848 183.322319 C 870.402619 183.327117 866.502681 183.197125 864.429053 182.546967 C 849.751817 178.77774 839.231155 170.598812 832.477639 160.076019 C 825.59039 149.683582 822.476131 136.699501 822.477003 123.058439 C 822.475701 121.628983 822.476715 119.421791 822.601813 116.436772 C 822.605915 110.328845 822.863951 102.020461 823.255137 91.628338 C 823.38559 86.563921 823.641982 81.108421 823.773955 75.393173 L 817.670277 75.395101 L 817.281832 42.661986 L 827.022787 42.01408 L 827.019818 -13.705256 L 904.30152 -14.485035 C 903.912916 -9.550009 903.653073 -4.227442 903.260464 1.617364 L 900.794963 39.1551 L 919.886049 38.3739 C 923.00391 38.37378 926.251113 40.714584 928.850475 44.35128 C 931.317793 47.986289 933.002649 53.052686 933.00272 58.769621 C 933.003176 62.925056 930.794753 67.21152 927.418063 70.327015 C 924.044825 73.575444 919.366137 75.650326 915.082908 75.655124 L 898.583824 75.651718 C 898.196354 81.497413 897.938275 87.084958 897.67498 92.274591 C 897.419386 97.603188 897.155033 102.279173 897.026897 106.565854 C 896.766717 110.850847 896.635759 114.358903 896.50632 117.216128 C 896.376881 120.073352 896.378352 122.021596 896.378689 123.059169 C 896.380328 125.526199 896.766637 129.684918 898.065136 133.191671 C 899.367975 136.826218 901.185092 139.814016 904.688008 139.944084 C 907.287082 139.944132 910.406924 138.128703 914.041303 136.307077 C 917.547888 134.489792 921.312623 132.801897 925.341153 132.800643 C 930.147419 132.801706 934.434388 136.56649 937.548532 141.112797 C 940.539223 145.791241 942.22842 150.985432 942.227574 153.711411 C 942.226294 160.597964 937.289743 166.180104 930.019558 170.595953 C 922.616438 175.015254 912.611346 178.258859 902.611855 180.338876 C 892.613254 182.413753 882.48218 183.327604 874.685848 183.322319 Z M 1037.299867 199.560999 C 1047.172237 199.560472 1058.860301 198.000425 1069.899515 194.623549 C 1080.943869 191.247563 1091.721773 185.925098 1099.514002 178.127132 C 1107.310479 170.335195 1112.372512 160.206535 1112.372663 147.0894 C 1112.372543 143.971539 1111.853468 140.335059 1110.552316 136.568468 C 1109.255506 132.929671 1107.18007 129.293696 1104.193335 126.304547 C 1108.607599 123.188716 1112.244925 119.943662 1115.101862 116.436453 C 1120.813249 109.680983 1124.064434 102.795998 1125.619666 96.564911 C 1127.048882 90.327887 1127.31138 85.265158 1127.052311 82.144811 L 1126.78818 79.420597 C 1126.792721 63.832182 1122.112159 51.884399 1114.83947 42.923275 C 1107.439877 33.961352 1097.308319 27.723672 1086.397919 23.569102 C 1075.487519 19.414531 1063.795715 17.204996 1053.279005 16.035276 C 1042.756266 14.869806 1033.272327 14.736434 1027.041744 14.737563 C 999.372878 14.737675 977.685947 23.05196 962.878059 40.063358 C 948.073623 57.20769 940.147339 83.054274 940.148027 117.996436 C 940.150596 142.410258 945.603777 162.675477 960.540749 176.960112 C 975.476831 191.249886 999.763771 199.562528 1037.299867 199.560999 Z M 1037.298427 181.37776 C 1006.649773 181.375429 986.90728 174.881814 974.955447 163.840137 C 962.875819 152.802802 958.331187 136.829066 958.331266 117.994996 C 958.334438 89.940277 964.5686 68.638937 976.257781 54.353637 C 987.947851 40.063198 1005.091253 32.920843 1027.038045 32.919912 C 1033.792554 32.919505 1044.9641 33.180965 1056.9114 35.260051 C 1068.86473 37.334888 1081.461679 41.103899 1091.334456 47.85788 C 1101.200407 54.743015 1108.088377 64.611526 1108.603975 79.030155 C 1108.608795 91.629393 1104.31919 101.240693 1097.566945 108.382352 C 1090.681766 115.527463 1081.199249 119.941408 1070.810698 122.801016 C 1060.290103 125.658937 1048.987815 126.825245 1038.209916 126.827797 C 1034.573268 126.828085 1031.065212 126.697127 1027.690888 126.435813 C 1027.81673 131.242876 1028.730677 136.175802 1030.41937 139.813633 C 1031.976019 143.449776 1034.572391 145.78906 1038.727825 145.788604 C 1045.095591 145.790052 1052.49736 142.540369 1058.33956 140.074065 L 1058.471604 140.075753 C 1064.573643 137.606796 1071.721846 135.271326 1076.396068 135.270701 C 1077.306737 135.269567 1077.952429 135.270196 1078.343513 135.396135 C 1080.943553 135.788066 1084.319733 136.436123 1087.044361 137.606587 C 1089.642084 138.776254 1091.850746 140.725511 1092.24258 143.323619 C 1093.150325 153.061921 1089.904448 160.466582 1084.576015 166.049689 C 1079.251033 171.765729 1071.458441 175.530025 1063.016277 178.00142 C 1054.575002 180.467675 1045.482392 181.376049 1037.298427 181.37776 Z M 1027.557236 107.732099 C 1030.287388 107.341953 1032.88212 107.214207 1035.35429 107.213457 C 1037.82132 107.211818 1039.899751 106.825292 1041.849514 106.17299 C 1045.615215 104.876978 1048.212482 101.891209 1048.208286 93.966193 C 1048.213642 91.886795 1047.952886 88.898493 1046.779941 86.562156 C 1045.612136 84.226708 1043.666763 82.40773 1040.15791 82.403677 C 1035.483688 82.404301 1032.492683 85.004293 1030.546752 89.547942 C 1028.599932 94.09673 1027.690392 100.328447 1027.557236 107.732099 Z M 1183.806716 199.56031 C 1195.36749 199.560966 1203.680509 198.263531 1209.917967 195.532173 C 1216.147708 192.937109 1220.433933 188.909811 1224.071475 183.58447 C 1229.397321 188.778374 1234.984264 192.67824 1241.866519 195.272565 C 1248.620979 197.871231 1256.675 199.170385 1266.933223 199.173141 C 1271.609301 199.559259 1278.7535 198.133568 1287.842538 193.974399 C 1296.935029 189.948163 1307.844564 183.19279 1319.928569 172.803011 C 1315.899175 161.894321 1313.304185 142.150423 1311.354431 118.25172 C 1309.402989 94.48506 1308.364245 66.302883 1307.845178 38.115398 C 1307.197519 10.05916 1306.935713 -17.993796 1306.80561 -41.762724 C 1299.141566 -40.850512 1293.168505 -40.074301 1288.755087 -39.684448 C 1284.339983 -39.162551 1281.479474 -38.906137 1280.182062 -38.903147 C 1271.4802 -38.906407 1265.243805 -40.981315 1259.532226 -43.060641 C 1252.258979 -45.659139 1245.242195 -47.996203 1235.893751 -47.994954 C 1222.25269 -47.995826 1213.553048 -43.578675 1207.96743 -37.733076 C 1202.382703 -31.892617 1200.301304 -24.487494 1199.91569 -18.255056 C 1199.391787 -9.939768 1199.262588 -0.846822 1199.2635 7.464048 L 1199.262388 14.869388 C 1198.613245 14.735824 1198.094458 14.735993 1197.448767 14.735363 L 1195.627428 14.737632 C 1167.053032 14.739768 1145.103148 23.961347 1130.556862 41.235069 C 1115.878532 58.507103 1108.347415 83.966868 1108.349041 116.304817 C 1108.346715 141.633558 1114.712421 162.284385 1127.311921 176.831296 C 1139.906282 191.377316 1158.868968 199.562158 1183.806716 199.56031 Z M 1183.810415 181.377961 C 1164.976345 181.377882 1150.69015 175.013753 1141.076586 163.582897 C 1131.466474 152.284974 1126.528196 136.047226 1126.53228 116.303377 C 1126.531278 88.63965 1133.024557 67.859583 1144.97623 53.831467 C 1156.794172 39.933708 1173.936776 32.918258 1195.628868 32.920871 C 1202.510282 32.921261 1210.304801 35.260642 1217.968748 39.546579 C 1217.58068 29.80297 1217.448906 19.802008 1217.448042 8.892064 C 1217.44713 0.581195 1217.576329 -8.511752 1218.098376 -17.213782 C 1218.225329 -19.812059 1219.394827 -22.928568 1222.125994 -25.525906 C 1224.723429 -27.992888 1229.135543 -29.812197 1235.890052 -29.812605 C 1243.163348 -29.813181 1249.009624 -27.472329 1255.636214 -25.266343 C 1262.257664 -23.061246 1269.792346 -20.719211 1280.183502 -20.719907 C 1282.650532 -20.721546 1286.027342 -20.719181 1288.752354 -21.110217 C 1288.881811 -10.331519 1288.882843 1.097211 1289.015198 13.051556 C 1289.143303 24.999871 1289.271408 36.948187 1289.535899 49.025984 C 1290.055399 73.052895 1290.960753 97.083089 1292.520193 117.732853 C 1294.077945 138.514662 1296.286408 156.180129 1299.532206 167.609538 C 1297.458361 169.039667 1295.378579 170.595811 1293.171002 172.156296 C 1290.962628 173.843687 1288.491761 175.273892 1286.027721 176.572943 C 1280.830414 179.166781 1274.723866 180.989157 1266.932673 180.984762 C 1252.386082 180.985914 1241.734001 177.47952 1234.461263 171.11747 C 1227.189416 164.75028 1223.032732 155.402293 1221.477026 143.842023 L 1217.97049 143.060234 C 1213.810948 154.488531 1210.824693 163.970826 1206.150879 170.725959 C 1201.345021 177.479405 1194.847263 181.377895 1183.810415 181.377961 Z M 1205.888617 138.517569 C 1210.435934 138.516147 1213.294053 133.320533 1215.368289 125.00899 C 1217.319961 116.824444 1218.095866 105.524936 1218.488235 93.444408 C 1216.019615 88.379943 1212.77384 85.266543 1207.708625 85.262995 C 1203.680095 85.264249 1201.604101 87.990901 1200.564666 92.924407 C 1199.524341 97.863054 1199.526605 105.004305 1199.52583 113.447219 C 1199.52607 119.682941 1199.913052 125.916807 1200.95125 130.590692 C 1201.860856 135.395823 1203.422476 138.514069 1205.888617 138.517569 Z M 1205.888617 138.517569 " stroke="#dc643c" stroke-width="4.821359" stroke-opacity="1" stroke-miterlimit="4"/></svg>