<?xml version="1.0" encoding="UTF-8" standalone="no" ?>
<!DOCTYPE svg PUBLIC "-//W3C//DTD SVG 1.1//EN" "http://www.w3.org/Graphics/SVG/1.1/DTD/svg11.dtd">
<svg xmlns="http://www.w3.org/2000/svg" xmlns:xlink="http://www.w3.org/1999/xlink" version="1.1" width="1080" height="1080" viewBox="0 0 1080 1080" xml:space="preserve">
<desc>Created with Fabric.js 5.2.4</desc>
<defs>
</defs>
<rect x="0" y="0" width="100%" height="100%" fill="transparent"></rect>
<g transform="matrix(1 0 0 1 540 540)" id="7abb2b11-1ea5-4c98-b7a0-a2aff69ecbfa"  >
<rect style="stroke: none; stroke-width: 1; stroke-dasharray: none; stroke-linecap: butt; stroke-dashoffset: 0; stroke-linejoin: miter; stroke-miterlimit: 4; fill: rgb(97,166,171); fill-rule: nonzero; opacity: 1; visibility: hidden;" vector-effect="non-scaling-stroke"  x="-540" y="-540" rx="0" ry="0" width="1080" height="1080" />
</g>
<g transform="matrix(1 0 0 1 540 540)" id="62595526-a7ba-4077-b6fe-a5601ddc0129"  >
</g>
<g transform="matrix(NaN NaN NaN NaN 0 0)"  >
<g style=""   >
</g>
</g>
<g transform="matrix(NaN NaN NaN NaN 0 0)"  >
<g style=""   >
</g>
</g>
<g transform="matrix(NaN NaN NaN NaN 0 0)"  >
<g style=""   >
</g>
</g>
<g transform="matrix(21.6 0 0 21.6 540 540)"  >
<g style=""   >
		<g transform="matrix(0.49 0 0 0.49 0 0)" id="container"  >
<circle style="stroke: none; stroke-width: 1; stroke-dasharray: none; stroke-linecap: butt; stroke-dashoffset: 0; stroke-linejoin: miter; stroke-miterlimit: 4; fill: rgb(35,35,35); fill-rule: nonzero; opacity: 1;" vector-effect="non-scaling-stroke"  cx="0" cy="0" r="50" />
</g>
		<g transform="matrix(0.06 0 0 0.06 0.12 0.14)" id="icon"  >
<path style="stroke: none; stroke-width: 1; stroke-dasharray: none; stroke-linecap: butt; stroke-dashoffset: 0; stroke-linejoin: miter; stroke-miterlimit: 4; fill: rgb(255,255,255); fill-rule: nonzero; opacity: 1;" vector-effect="non-scaling-stroke"  transform=" translate(-256, -256)" d="M 256 0 C 139.167 0 44.467 94.708 44.467 211.533 C 44.467 372.184 256 512 256 512 C 256 512 467.533 372.18399999999997 467.533 211.53300000000002 C 467.533 94.708 372.833 0 256 0 z M 256 375.941 C 165.2 375.941 91.6 302.341 91.6 211.533 C 91.6 120.73299999999999 165.201 47.125 256 47.125 C 346.799 47.125 420.41700000000003 120.733 420.41700000000003 211.533 C 420.41700000000003 302.342 346.8 375.941 256 375.941 z" stroke-linecap="round" />
</g>
		<g transform="matrix(0.06 0 0 0.06 -0.19 -2.15)" id="icon"  >
<path style="stroke: none; stroke-width: 1; stroke-dasharray: none; stroke-linecap: butt; stroke-dashoffset: 0; stroke-linejoin: miter; stroke-miterlimit: 4; fill: rgb(255,255,255); fill-rule: nonzero; opacity: 1;" vector-effect="non-scaling-stroke"  transform=" translate(-250.39, -214.96)" d="M 338.708 205.15 L 162.066 205.15 C 156.649 205.15 152.258 209.53300000000002 152.258 214.95000000000002 L 152.258 273.834 L 171.883 273.834 L 171.883 283.65 L 211.133 283.65 L 211.133 273.834 L 289.641 273.834 L 289.641 283.65 L 328.891 283.65 L 328.891 273.834 L 348.524 273.834 L 348.524 214.95 C 348.524 209.533 344.125 205.14999999999998 338.708 205.14999999999998 z M 191.508 166.05 L 240.57500000000002 166.05 L 240.57500000000002 195.33300000000003 L 260.2 195.33300000000003 L 260.2 166.05 L 309.267 166.05 L 309.267 195.33300000000003 L 328.892 195.33300000000003 L 328.892 146.26700000000002 L 171.883 146.26700000000002 L 171.883 195.33300000000003 L 191.508 195.33300000000003 z" stroke-linecap="round" />
</g>
</g>
</g>
</svg>